<?xml version="1.0" encoding="UTF-8"?>
<svg id="Layer_1" data-name="Layer 1" xmlns="http://www.w3.org/2000/svg" viewBox="0 0 484 588.97">
  <defs>
    <style>
      .cls-1 {
        fill: #193b2b;
        stroke-width: 0px;
      }
    </style>
  </defs>
  <path class="cls-1" d="m239.84,588.96c-186.75-.94-297.48-195.06-208.66-365.66,26.35-50.61,63.57-92.54,104.58-131.35,29.79-28.19,60.35-55.57,90.62-83.26,6.6-6.04,12.45-13.78,22.67-4.13,63.39,59.88,134.09,112.77,182.61,186.96,43.69,66.81,65.08,139.54,44.42,218.96-27.88,107.16-124.72,179.04-236.23,178.48Zm224.88-249.94c-1.82-66.18-36.72-131.29-88.02-189.2-38.42-43.37-83.81-79.49-125.11-119.86-8.02-7.84-13.89-6.66-21.05.4-44.36,43.72-94.65,81.2-134.72,129.48C32.55,236.06-1.68,320.09,30.81,419.24c28.12,85.8,89.44,135.15,178.52,149.52,7.38,1.19,17.05,5.34,21.75-5.53,6.12-14.13-2.25-35.56-16.17-43.88-59.85-35.77-96-86.73-93.95-158.27,2.41-84.27,43.08-150.1,104.89-204.83,12.37-10.95,21.69-10.14,33.15.16,34.41,30.93,63.05,66.21,79.74,109.67,31.61,82.32,28.46,159.42-37.59,225.69-12.4,12.45-26.55,22.66-41.95,31.19-18.06,10-10.65,27.38-8.6,40.63,1.86,12.01,15.17,5.5,23.13,4.29,112.31-16.99,190.4-105.38,190.98-228.86Zm-315.77-34.01c-26.19,73.74.2,152.85,61.34,191.23,4.98,3.13,10.32,8.22,16.48,5.4,6.8-3.12,4.38-10.63,4.44-16.32.29-29.52.36-59.05.13-88.57-.07-8.96.42-18.72-9-24.23-28.37-16.6-51.53-39.04-73.38-67.5Zm100.99,134.05c0,15.94-.22,31.88.13,47.81.11,5-2.59,11.91,2.74,14.63,6.3,3.21,11.31-2.85,15.74-6.49,51.48-42.33,79.96-94.52,69.18-163.29-1.05-6.68.18-15.59-6.29-18.6-8.67-4.03-12.5,6.14-18.12,10.38-7.25,5.46-12.95,13.2-20.59,17.86-37.25,22.74-52.69,54.54-42.78,97.7Zm-18.82-256.62c-35.93,27.9-60.39,62.54-75.86,103.42-2.41,6.36-1.21,11.89,4.34,16.16,19.18,14.72,38.16,29.7,57.64,44,8.54,6.27,13.92,3.88,13.91-7.58-.08-52-.03-104-.03-155.99Zm18.8-9.9c0,58.45.21,111.27-.14,164.09-.09,14.01,4.85,14.18,14.21,6.84,16.67-13.06,32.47-27.51,50.31-38.69,11.56-7.25,13.38-13.98,8.97-25.56-15.07-39.6-39.28-72.79-73.35-106.67Z"/>
</svg>