<svg xmlns="http://www.w3.org/2000/svg" xmlns:xlink="http://www.w3.org/1999/xlink" id="Layer_1" x="0" y="0" version="1.1" viewBox="0 0 300 300" style="enable-background:new 0 0 300 300" xml:space="preserve"><style type="text/css">.st0{fill:#cb3386}.st1{fill:#4c2c41}</style><g><g><path d="M273.61,182.29c0.18-1.55,0.28-3.09,0.29-4.61l2.84-6.51c1.16-2.65,2.14-5.4,2.92-8.24 c1.62-5.91,2.33-11.87,2.11-17.69c-0.22-5.97-1.08-11.39-2.53-16.11c-0.67-2.16-1.5-4.24-2.35-6.33l-0.23-0.7l-4.39-8.44 c-0.51-3.72-1.58-7.36-3.18-10.78c-2.74-5.91-7.1-11.36-12.58-15.74l-0.26-1.82c-0.96-6.89-3.41-13.33-7.24-19.14 c-2.9-4.41-6.62-8.17-10.92-11.09c-0.85-0.6-1.74-1.1-2.95-1.73l-3.09-1.71l1.01,0.06l-2.27-1.94 c-3.42-6.07-8.48-11.15-14.55-14.56c-1.31-0.73-2.62-1.36-3.96-1.92c-0.47-0.2-0.96-0.39-1.44-0.57l-6.67-5.7 c-1.69-1.46-3.42-2.85-5.41-4.1c-2.36-1.47-4.87-2.76-7.46-3.85c-3.05-1.27-6.21-2.26-9.37-2.93c-6.86-1.45-13.29-1.21-18.16-0.83 c-1.01,0.07-2.11,0.21-3.27,0.35c-0.96,0.11-1.98,0.24-3,0.32l-7.62,0.55c-3.69-0.92-7.3-1.02-10.48-0.96 c-13.39,0.2-24.03,4.03-31.15,11.12c-9.8-2.09-20.17,0.23-29.43,6.61c-6.62,4.57-11.64,11.2-14.4,18.82 c-3.91,0.75-8.33,1.89-12.82,4.11c-5.61,2.81-10.79,6.87-14.95,11.73c-8.73,10.18-10.71,21.67-11.89,31.65l-0.4,3.31 c-9.62,9.48-10.97,23.72-8.89,34.22c1.1,5.57,3.32,10.95,6.39,15.5c1.25,1.88,2.56,3.54,3.9,4.98c-1.38,2.86-2.45,5.86-3.13,8.92 c-2.63,11.63,0.62,24.75,9.12,36.92c3.31,4.75,7.46,8.98,12.32,12.57c2.09,1.56,4.38,2.83,6.71,4.03l0.64-0.78l0.31,1.18 c1.65,6.38,4.36,11.89,8.26,16.81c5.94,7.5,13.86,13.71,23.58,18.46c2.29,1.12,4.68,2.24,7.13,3.26 c5.89,2.46,11.13,3.97,16.12,4.62l5.64,4.17c3.87,2.87,7.98,5.23,12.19,7c7.78,3.26,15.85,4.52,23.99,3.76 c1.21-0.11,2.43-0.27,3.65-0.48l6.8,2.06c3.38,1.03,7.46,2.12,12.18,2.47c6.83,0.49,13.66-0.47,19.73-2.77 c6.54-2.46,12.19-6.44,16.48-11.54l5.79-1.58c0.9-0.25,1.78-0.52,2.62-0.84c3.81-1.5,7.49-3.85,10.96-7.01 c6.09-5.55,10.11-11.58,12.27-18.39c4.34-1.99,8.38-5.2,11.87-9.48c3.43-4.23,6.09-9.16,7.7-14.32c0.5-1.62,0.88-3.29,1.11-4.97 c0.18-1.31-0.19-2.64-0.01-3.9c0.31-2.18,2.85-3.23,4.27-4.6c1.68-1.62,2.97-3.42,4.13-5.46 C270.17,194.29,272.85,188.91,273.61,182.29z" class="st0"/></g><g><path d="M277.94,184.1c0.18-1.58,0.29-3.15,0.3-4.71l2.89-6.65c1.18-2.7,2.18-5.51,2.98-8.41 c1.65-6.03,2.38-12.11,2.16-18.05c-0.23-6.1-1.1-11.63-2.59-16.44c-0.69-2.21-1.53-4.33-2.4-6.46l-0.23-0.71l-4.48-8.62 c-0.52-3.8-1.61-7.51-3.24-11c-2.8-6.03-7.25-11.59-12.84-16.06l-0.27-1.86c-0.98-7.03-3.48-13.61-7.39-19.54 c-2.96-4.5-6.75-8.34-11.14-11.32c-0.86-0.61-1.78-1.13-3.01-1.77l-3.16-1.74l-1.29-1.92c-3.49-6.2-8.65-11.38-14.84-14.86 c-1.34-0.74-2.68-1.39-4.04-1.96c-0.48-0.2-0.98-0.4-1.47-0.58l-6.8-5.81c-1.73-1.49-3.49-2.91-5.52-4.18 c-2.41-1.5-4.97-2.82-7.62-3.93c-3.11-1.3-6.34-2.31-9.56-2.99c-7-1.48-13.56-1.24-18.53-0.85c-1.03,0.07-2.16,0.22-3.34,0.36 c-0.98,0.12-2.02,0.25-3.06,0.33l-7.77,0.56c-3.76-0.94-7.45-1.04-10.69-0.98c-13.66,0.21-24.52,4.11-31.78,11.35 c-10-2.13-20.59,0.24-30.03,6.75c-6.76,4.66-11.88,11.43-14.69,19.21c-3.99,0.77-8.5,1.92-13.08,4.19 c-5.73,2.87-11.01,7.01-15.26,11.97c-8.91,10.39-10.93,22.11-12.13,32.29l-0.4,3.37c-9.82,9.67-11.19,24.2-9.07,34.91 c1.12,5.68,3.39,11.17,6.52,15.82c1.27,1.92,2.61,3.61,3.98,5.09c-1.41,2.92-2.5,5.97-3.2,9.1c-2.68,11.86,0.74,25.17,9.3,37.67 c9.4,13.73,20.08,16.14,20.08,16.14l0.32,1.2c1.69,6.51,4.45,12.13,8.42,17.15c6.06,7.65,14.14,13.99,24.06,18.84 c2.34,1.14,4.78,2.28,7.28,3.33c6.01,2.51,11.36,4.06,16.45,4.71l5.76,4.25c3.95,2.93,8.14,5.34,12.44,7.14 c7.94,3.32,16.17,4.62,24.47,3.84c1.24-0.11,2.48-0.28,3.72-0.49l6.94,2.11c3.45,1.05,7.61,2.17,12.43,2.52 c6.97,0.5,13.93-0.47,20.13-2.82c6.67-2.51,12.44-6.57,16.82-11.77l5.91-1.61c0.92-0.25,1.82-0.53,2.67-0.86 c3.89-1.53,7.65-3.93,11.18-7.15c6.22-5.66,10.32-11.81,12.52-18.76c4.43-2.03,8.56-5.31,12.12-9.67 c3.5-4.31,6.21-9.35,7.85-14.62c0.51-1.66,0.89-3.36,1.13-5.07c0.19-1.34-0.2-2.7-0.01-3.98c0.32-2.22,2.9-3.3,4.35-4.7 c1.72-1.66,3.03-3.49,4.21-5.57C274.42,196.34,277.16,190.86,277.94,184.1z M272.58,127.21c0.04,0.08,0.07,0.17,0.11,0.25 c0.8,1.97,1.61,3.94,2.24,5.98c1.33,4.3,1.9,8.95,2.07,13.44c0.18,4.89-0.46,9.82-1.75,14.54c-0.64,2.33-1.46,4.61-2.42,6.82 c-0.03,0.07-0.07,0.14-0.1,0.21c-1.1-2.6-2.54-4.98-4.39-6.91c0.11-0.36,0.25-0.71,0.34-1.07c1.35-5.34,1.61-10.94,0.48-16.35 c-0.49-2.35-1.27-4.6-2.23-6.77C269.63,134.47,271.49,130.98,272.58,127.21z M242.82,163.49c9.64,3.9,13.39,14.63,13.05,24.56 c-0.19,5.54-1.17,11.86-4.67,16.34c-2.99,3.82-7.37,5.8-11.83,7.36c0.08-0.83,0.16-1.67,0.17-2.5c0.11-4.89-0.62-9.77-2.24-14.39 c-0.83-2.37-2.04-4.63-3.38-6.76c-0.69-1.1-1.45-2.19-2.38-3.11c-0.01-0.01-0.03-0.02-0.04-0.03 C237.4,179.17,241.21,171.56,242.82,163.49z M262.86,145.4c0.86,4.27,0.73,8.76-0.36,12.97c-0.56,2.16-1.34,4.28-2.34,6.29 c-0.54,1.08-1.05,2.2-1.62,3.28c-3.24-5.78-8.2-10.39-14.88-12.39c0.03-4.85-0.75-9.6-2.31-14.09c0.24-0.17,0.51-0.3,0.7-0.56 c3.49-4.79,6.37-9.86,8.28-15.36C256.57,130.42,261.3,137.66,262.86,145.4z M181.48,233.46c3.21,0.27,6.45-0.07,9.63-1.42 c3.98-1.69,7.92-4.01,11.47-6.81c5.34,1.54,10.37,5.45,10.43,11.06c0.08,6.81-4.99,12.38-10.49,15.72 c-5.64,3.42-12.28,5.37-18.89,5.28c-3.55-0.04-7.17-0.66-10.55-1.72c-1.58-0.49-3.02-1.14-4.44-1.83 c0.08-0.06,0.18-0.09,0.26-0.16c3.76-2.83,6.95-6.5,9.32-10.56C179.88,240.17,181.76,236.74,181.48,233.46z M191.51,222.33 c-3.62,2.1-7.08,3.67-11.3,2.5c-3.64-1.01-7.09-2.84-10.16-5.02c-3.46-2.46-6.38-5.49-8.77-8.99c-2.05-3.02-3.12-6.81-5.17-9.82 c4.5-5.37,7.58-12.01,8.01-18.61c0.11-1.77,0.48-3.72,1.9-4.79c0.7-0.53,1.58-0.77,2.42-1.02c4.72-1.42,9.35-3.7,13.31-6.79 c0.07,0.03,0.12,0.09,0.19,0.11c14.54,4.39,29.41,17.6,25.32,34.31C205.29,212.23,198.38,218.35,191.51,222.33z M215.9,69.63 c2.16,0.83,5.06,2.09,7.14,3.14c3.09,1.55,5.96,3.48,8.59,5.72c5.46,4.66,9.64,10.82,11.97,17.61 c4.13,12.04,1.92,27.19-6.09,37.33c-4.4-7.3-12.65-13.23-19.44-17.09c0-0.01,0.01-0.02,0.01-0.03c2.56-4.95,1.84-22.61-2.17-29.18 C217.43,79.74,216.8,74.44,215.9,69.63z M212.29,105.57c0.27,3.24,0.24,6.27-0.13,9.51c-0.46,4.06-2.23,6.89-5.04,9.8 c-3.84,3.97-8.54,6.63-13.27,9.28c-0.25-0.71-0.36-1.46-0.7-2.15c-1.88-3.85-5.02-6.77-8.19-9.57c-3.75-3.31-7.09-6.9-11.59-9.22 c-6.84-3.53-16.78-6.19-24.82-4.76c-1.21-2.11-2.56-4.18-2.7-6.78c-0.34-6.46,4.49-13.41,10.02-16.42 c5.33-2.9,10.8-5.13,16.87-5.79c6.17-0.68,12.37-0.57,18.53,0.16c6.64,0.78,13.58,2.25,17.24,8.46 C211.63,93.35,211.79,99.66,212.29,105.57z M177.91,166.12c-5.77,4.4-13.27,4.69-20.14,3.21c-3.39-0.73-7.21-2.67-10-4.73 c-2.48-1.83-4.17-4.48-5.98-6.93c-3.33-4.5-7.14-9.02-8.47-14.58c-0.82-3.42-0.91-7.08-0.14-10.52c1.23-5.51,5.63-9.86,9.71-13.43 c3.85-3.37,10.44-4.22,15.38-3.73c6.95,0.69,12.55,4.43,17.51,9.1c2.94,2.77,6.41,5.23,8.96,8.37c3.57,4.39,4.03,9.76,2.87,15.11 C186.09,155,183.86,161.58,177.91,166.12z M181.51,72.31c-11.49,0.09-22.64,3.78-31.26,11.38c-0.54,0.47-1.07,0.95-1.6,1.43 c-2.51-3.25-5-6.72-5.51-10.86c-0.6-4.9,1.8-9.96,4.36-14c5.93-9.36,16.4-14.68,26.91-17.3c10.89-2.72,19.9,4.48,26.44,12.53 c5.8,7.15,8.72,14.86,8.38,23.6C201.91,72.95,190.73,72.24,181.51,72.31z M106.63,156.54c3.46-3.36,7.27-5.48,12-6.49 c2.23-0.48,4.55-0.74,6.83-0.67c0.92,0.03,1.81,0.15,2.7,0.29c1.05,2.1,2.33,4.1,3.62,5.98c2.56,3.74,5.13,7.64,8.1,11.07 c3.01,3.47,6.95,5.68,11.12,7.52c1.94,0.86,3.8,1.28,5.75,1.65c1.18,1.21-0.45,6.23-0.77,7.61c-1.84,7.98-4.99,14.96-12.78,18.63 c-9.14,4.3-19.08,5.65-28.15,0.56C98.92,193.64,92.46,170.33,106.63,156.54z M120.21,212.73c7.48,1.79,15.33,0.96,23.06-2.08 c2.47-0.97,4.82-2.39,7.03-4.06c0.82,2.73,2.35,5.39,3.7,7.58c2.52,4.11,5.66,7.74,9.31,10.89c3.39,2.92,7.38,5.4,11.62,6.93 c-0.96,1.77-1.49,3.99-2.43,5.68c-1.94,3.46-4.54,6.46-7.63,8.95c-6.78,5.46-15.65,7.19-24.16,6.01 c-9.16-1.27-17.88-5.47-25.4-10.74c-3.48-2.44-6.87-5.21-9.8-8.29c-1.96-2.06-3.41-4.39-4.79-6.79c2.88-0.81,5.7-1.85,8.36-3.23 C113.59,221.23,118.19,217.56,120.21,212.73z M213.98,186.54c-0.39-0.99-0.82-1.96-1.3-2.91c-5.17-10.1-14.57-16.7-25.21-19.81 c2.26-3.2,3.88-6.74,5.2-10.67c1.38-4.12,2.57-8.13,2.4-12.54c8.03-4.12,15.61-9.32,20.01-17c0.11,0.06,0.17,0.16,0.29,0.21 c13.92,6.35,22.31,20.88,20.3,36.12c-0.93,7.04-3.86,13.87-8.8,19.04C223.16,182.89,218.83,185.12,213.98,186.54z M255.57,94.9 c3.92,3.14,7.22,8.05,9.35,12.62c1.93,4.14,2.74,8.75,2.33,13.3c-0.36,4.05-1.67,7.33-3.7,10.57c-0.4-0.58-0.78-1.18-1.22-1.74 c-1.58-2.02-5.08-6.35-10.57-9.27c0.22-0.89,0.24-0.74,0.4-1.66c1.4-8.05,0.66-16.51-2.11-24.19c-0.4-1.1-0.62-1.44-1.11-2.51 C249.99,92.02,253.7,93.4,255.57,94.9z M236.84,62.63c3.12,2.12,5.82,4.84,7.9,7.99c2.99,4.54,4.79,9.36,5.52,14.58 c-1.91-0.92-3.96-1.66-5.94-1.4c-2.51-3.48-5.48-6.63-8.77-9.32c-0.33-0.27-0.7-0.49-1.03-0.75c0.33-2.87,0.95-5.65,0.79-8.64 c-0.07-1.21-0.29-2.4-0.5-3.6C235.48,61.88,236.19,62.19,236.84,62.63z M214.95,42.43c5.06,2.84,9.13,7.38,11.45,12.78 c1.15,2.67,1.87,5.49,2.25,8.39c0.24,1.83-0.03,3.92-0.14,6.14c-1.23-0.71-1.89-1.12-3.18-1.71c-3.11-1.43-6.58-2.78-10.06-2.93 c-3.74-10.97-12.6-20.87-22.5-25.84C200.39,38.26,208.02,38.54,214.95,42.43z M167.48,23.17c5.11-0.4,10.15-0.44,15.2,0.62 c4.69,0.99,9.3,2.86,13.37,5.39c1.47,0.91,2.76,2,4.03,3.09c-7.06-0.38-14.29,0.87-20.62,3.57c-0.3,0.13-0.49,0.31-0.68,0.48 c-4.24,0.27-8.46,1.4-12.54,2.93c0.1-5.44-1.98-11.06-5.48-15.36C163.14,23.73,165.52,23.33,167.48,23.17z M115.04,34.28 c5.56-8.38,16.53-10.64,25.91-10.8c5.12-0.08,10.29,0.24,13.87,4.37c3.53,4.07,3.6,8.94,4.32,13.98c0.02,0.15,0.09,0.24,0.13,0.38 c-8.84,4.25-16.11,10.69-20.37,19.71c-1.88,3.99-3.18,8.52-2.89,12.99c-3.75,0-7.5-0.49-10.88-2.19 c-4.39-2.2-7.91-5.87-10.15-10.21C110.75,54.29,109.74,42.26,115.04,34.28z M84.69,39.76c6.49-4.48,14.13-6.66,21.78-4.54 c-0.63-0.18-1.92,7-2,7.68c-1.22,9.85,1.12,20.36,7.12,28.33c1.29,1.71,2.85,3.27,4.54,4.69c-2.21,7.09-7.59,12.38-15.24,13.53 c-8.53,1.29-16.73-2.37-22.01-9.12C69.12,67.87,71.52,48.84,84.69,39.76z M42.92,73.9c3.18-3.71,7.11-6.85,11.5-9.03 c3.8-1.89,7.69-2.76,11.75-3.45c-0.62,15.53,9.91,30.82,25.13,34.44c-0.27,0.83-0.35,1.75-0.48,2.71 c-0.17,1.32-0.41,2.65-0.73,3.94c-0.5,2.04-1.44,4.46-2.35,6.55c-0.95,2.16-2.09,4.19-3.5,6.09c-0.6,0.81-1.26,1.57-1.91,2.33 c-5.52-7.43-14.48-13.07-22.63-16.38c-8.36-3.39-17.73-4.28-26.12-1.15C34.69,90.55,36.38,81.53,42.92,73.9z M33.23,152.17 c-0.38-0.32-0.75-0.65-1.13-1c-1.43-1.35-2.66-2.9-3.76-4.53c-2.3-3.42-3.9-7.38-4.7-11.41c-1.64-8.29-0.28-18.75,6.49-24.56 c6.26-5.36,15.66-5.71,23.23-3.48c8.16,2.41,17.17,7.85,22.53,14.57c2.71,3.4,4.22,7.31,3.36,11.68c-0.82,4.18-3.36,7.79-6.12,11 c-3.71-2.63-8.16-4.34-12.25-4.8c-9.83-1.11-19.12,3.5-25.8,10.44C34.42,150.74,33.83,151.46,33.23,152.17z M48.52,209.99 c-3.81-2.81-7.21-6.21-9.92-10.09c-5.54-7.94-9.69-18.32-7.49-28.11c2.26-10.04,10.61-19.83,20.4-23.24 c4.46-1.55,9.37-1.93,13.89-0.38c3.97,1.36,6.3,3.9,8.36,7c-2.75,0.54-5.47,1.41-8.08,2.66c-10.86,5.21-18.3,15.67-19.82,27.7 c-1.27,10.09,1.9,19.86,7.81,27.5C51.89,212.12,50.12,211.18,48.52,209.99z M52.06,190.36c0.14-9.78,5.35-18.8,13.69-23.88 c8.72-5.31,18.9-5.42,27.7-1.63c-1.51,4.63-2.17,9.53-1.79,14.14c0.93,11.5,7.61,22.15,17.06,28.62c1.84,1.26,3.74,2.25,5.67,3.11 c-2.27,1.95-4.52,3.87-7.29,5.37c-4.54,2.44-9.52,3.86-14.52,4.6c-9.69,1.42-19.83-0.25-27.76-5.92 C57.06,209.23,51.92,200.37,52.06,190.36z M122.98,255.13c-3.13,1.78-6.88,2.59-10.46,2.62c-8.5,0.08-17.07-3.63-24.57-7.29 c-7.76-3.79-14.74-8.84-20.11-15.64c-3.12-3.95-7.41-13.84-7.19-14.15c8.02,5.48,19.28,8.4,28.76,7.99 c2.1-0.09,4.22-0.36,6.32-0.73c2.59,7.64,9.32,14.35,15.42,18.95c3.86,2.91,8.02,5.59,12.4,7.82 C123.36,254.85,123.18,255.02,122.98,255.13z M149.23,273.15c-10.61,0.99-20.44-2.55-28.74-8.71c4.24-1.13,9.18-3.18,11.71-6.09 c2.94,0.97,5.94,1.7,9.01,2.09c7.61,0.96,15.15-0.1,21.89-3.37c2.65,2.35,5.97,4.19,9.45,5.47c-0.45,0.44-0.91,0.87-1.37,1.26 c-2.08,1.75-4.31,3.28-6.7,4.58C159.78,270.93,154.57,272.66,149.23,273.15z M190.28,275.33c-4.76,1.79-9.93,2.43-15,2.07 c-3.44-0.25-6.66-1.08-9.85-2.05c1-0.43,2.02-0.85,2.99-1.35c2.79-1.44,5.46-3.17,7.92-5.12c1.46-1.15,3.32-2.66,4.65-4.36 c6.58,0.69,13.22-0.31,19.36-2.77c2.27-0.91,4.41-2.11,6.47-3.45c-0.4,1.25-0.79,2.51-1.38,3.69 C202.33,268.21,196.76,272.89,190.28,275.33z M219.02,235.16c-0.25-1.78-0.68-3.53-1.4-5.19c-1.96-4.48-5.47-7.68-10.01-9.31 c2.74-2.95,5.01-6.28,6.53-9.92c2.29-5.49,2.77-11.62,1.74-17.48c3.83-0.56,7.54-2.15,10.82-4.36c0.33,0.71,0.65,1.43,1.06,2.12 c1.19,2.01,2.18,4.09,3.04,6.26c1.62,4.12,2.53,8.49,2.36,12.94c-0.37,9.49-5.54,18.11-12.92,23.9 C219.81,234.45,219.42,234.8,219.02,235.16z M223.66,255.94c-2.15,1.96-4.63,3.69-7.35,4.77c-0.68,0.27-1.39,0.42-2.09,0.63 c0.91-2.67,1.58-5.43,1.85-8.28c0.12-1.29,0.01-2.6-0.01-3.91c0.08-0.12,0.18-0.22,0.26-0.35c1.25-2.1,1.98-4.44,2.44-6.83 c1.71-0.24,3.6-1.49,4.81-2.3c0.19-0.13,0.35-0.28,0.54-0.41c2.65,1.2,5.83,2.23,8.9,2.5 C231.4,247.42,228.01,251.98,223.66,255.94z M247.67,228.07c-2.54,3.13-5.89,5.96-9.86,7c-1.86,0.49-3.86,0.58-5.75,0.23 c-0.91-0.17-1.76-0.48-2.62-0.81c4.23-4.6,7.24-10.35,8.82-16.44c0.04-0.01,0.08,0.01,0.13-0.01c5.56-1.33,11.37-2.83,15.81-6.45 c0,0.01,0,0.03,0.01,0.04c0.05,2.03-0.28,3.99-0.88,5.93C252.16,221.35,250.16,225.01,247.67,228.07z M264.48,194.97 c-0.84,1.49-1.77,2.82-2.83,4.11c1-3.77,1.41-7.74,1.53-11.5c0.14-4.5-0.52-9.16-1.96-13.53c1.64-1.97,3.35-3.83,4.55-6.11 c0.7,1.45,1.38,2.9,1.83,4.44c1.09,3.71,1.35,7.59,0.91,11.42C268.04,187.81,266.45,191.47,264.48,194.97z" class="st1"/></g></g></svg>