<?xml version="1.0" encoding="UTF-8"?>
<svg id="Layer_1" data-name="Layer 1" xmlns="http://www.w3.org/2000/svg" viewBox="0 0 411.5 646">
  <defs>
    <style>
      .cls-1 {
        fill: #be7444;
        stroke-width: 0px;
      }
    </style>
  </defs>
  <path class="cls-1" d="m202.02,646c-85.35-4.19-140.87-52.63-173.68-126.45C-20.8,408.97-4.54,303.53,65.49,205.92,141.02,100.64,242.85,34.28,368.04,2.93c6.72-1.68,15.05-5.75,20.14.18,4.61,5.38-2.22,11.6-4.33,17.33-23.59,63.99-19.62,129.02-6.37,194.08,10.39,51.07,28.7,100.46,32.72,152.9,7.69,100.34-17.32,186.84-105.08,246.35-30.87,20.94-65.06,32.01-103.09,32.22Zm-85.93-354.11c7.89-.93,10.2,2.69,12.6,5.64,11.98,14.76,23.54,29.87,35.77,44.41,5.07,6.02,11.62,12.96,19.78,11.48,10.72-1.94,6.74-12.85,7.92-19.92,7.69-46.22,18.62-91.52,36.39-135.01,3.97-9.71,6.84-20.37,19.42-24.84,1.56,10.12-3.37,16.69-6.25,23.71-18.18,44.24-28.66,90.51-36.24,137.51-1.05,6.51-3.77,14.91,4.02,19.46,6.4,3.74,11.97-1.68,17.69-3.95,15.24-6.06,25.82-17.96,36.95-29.26,3.59-3.65,7.69-10.81,13.32-6.11,6.14,5.13,1.89,11.35-2.78,16.33-14.26,15.19-30.14,28.79-50.26,34.58-18.78,5.41-25.19,16.77-24.2,34.91,1.25,22.94,2.26,45.9,2.83,68.86.51,20.41,10.21,22.59,26.18,14.37,24.96-12.84,46.31-30.24,65.52-50.57,5.33-5.64,9.6-14.07,22.68-12.57-21.57,38.24-51.19,63.32-89.9,76.36-17.34,5.84-22.72,14.53-18.35,31.41,6.35,24.52,11.6,49.33,18.49,73.69,7.83,27.68,12.74,29.53,38.28,17.8,91.54-42.03,139.57-127.07,132-231.44-3.8-52.44-14.72-103.38-28.17-153.97-17.99-67.69-23.44-135.48-2.35-203.73,6.35-20.57-6.88-16.55-18.28-12.74C229.07,58.46,129.46,126.09,60.8,234.67-6.98,341.86-1.98,473.34,73.65,568.09c31.17,39.06,72.22,60.81,122.14,65.19,18.04,1.58,27.32-3.36,20.07-24.37-6.17-17.87-11.31-36.54-13.49-55.25-3.69-31.69-16.08-54.3-48.67-64.21-10.79-3.28-19.79-12.78-29.3-19.86-8.52-6.35-17.33-12.88-16.66-25.96,13.2-.56,18.1,9.01,24.59,15.19,9.87,9.39,20.5,17.43,32.48,23.71,20.37,10.68,25.68,7.81,25.67-14.52-.01-24.56-1.31-49.13-1-73.68.16-12.67-5.96-20.17-15.11-27.6-24.64-19.98-46.98-42.01-58.28-74.84Z"/>
</svg>