<?xml version="1.0" encoding="UTF-8"?>
<svg id="Layer_1" data-name="Layer 1" xmlns="http://www.w3.org/2000/svg" viewBox="0 0 576 559.07">
  <defs>
    <style>
      .cls-1 {
        fill: #193b2b;
        stroke-width: 0px;
      }
    </style>
  </defs>
  <path class="cls-1" d="m352.17,72.89c-.15,42.2-31.35,71.26-75.99,70.78-40.41-.43-72.22-31.44-72.23-70.42C203.95,33.68,238.61.29,280,0c40.47-.28,72.32,31.89,72.18,72.89Zm-74.15,51.09c31.16.13,54.99-21.6,55.31-50.42.35-31.56-22.15-55.2-53.04-55.71-30.59-.51-54.84,23.34-54.85,53.94-.01,31.44,20.76,52.07,52.58,52.19Z"/>
  <path class="cls-1" d="m575.99,399.96c-.42,39.33-34.02,71.38-74.42,70.97-39.4-.39-74.31-35.16-73.26-72.97,1.13-40.8,34.49-72.86,75.88-72.92,42.08-.06,72.27,31.43,71.8,74.91Zm-19.37-3.15c-.17-30.83-22.18-53.74-51.71-53.82-31.78-.09-57.49,24.3-57.58,54.64-.09,30.58,23.73,53.55,55.2,53.26,31.67-.3,54.25-22.88,54.08-54.07Z"/>
  <path class="cls-1" d="m145.22,203.93c-1.05,39.43-35.09,71.09-75.39,70.14C29.32,273.12-1.42,240.23.05,199.43c1.39-38.52,34.4-69.52,73.62-69.12,40.17.41,72.61,33.79,71.55,73.62Zm-73.86,49.63c30.88.69,54.66-20.91,55.17-50.1.5-29.14-24.78-54.81-54.3-55.11-26.6-.27-52.54,24.24-53.76,50.82-1.43,31.1,20.51,53.66,52.9,54.39Z"/>
  <path class="cls-1" d="m281.91,211.1c43.13-.72,77.62,30.54,77.56,70.32-.06,41.05-34.19,74.13-77.09,74.72-37.73.51-69.16-30.55-70.33-69.5-1.21-40.5,30.58-74.89,69.86-75.55Zm58.71,73.99c.22-31.01-22.96-55.4-52.92-55.69-31.81-.31-55.67,23.27-56,55.34-.29,27.61,23.07,51.42,51.21,52.21,28.82.8,57.52-24.99,57.71-51.86Z"/>
  <path class="cls-1" d="m285.19,559.07c-41.69.47-73.8-30.19-74.15-70.79-.33-38.75,32.38-72.42,70.64-72.7,40.9-.3,74.55,31.2,75.45,70.63.93,40.75-30.31,72.39-71.94,72.86Zm-1.57-19.28c30.41.01,54.87-22.64,55.12-51.05.27-30.22-24.57-54.67-54.93-54.08-31.02.6-53.64,22.98-53.15,52.58.51,30.92,22.29,52.54,52.96,52.55Z"/>
  <path class="cls-1" d="m575.43,186.04c-.1,39.98-34.42,71.35-77.39,70.75-37.3-.53-69.57-33.38-69.7-70.95-.13-38.27,34.56-72.42,74.01-72.86,38.99-.43,73.18,33.75,73.08,73.07Zm-73.86,52.17c29.9-.46,54.02-23.77,54.14-52.35.14-32.07-22.8-55.79-53.16-54.96-31.32.85-54.32,24.29-53.92,54.95.4,30.74,22.73,52.82,52.95,52.36Z"/>
  <path class="cls-1" d="m74.73,333.02c39.53-.33,73.05,31.01,73.84,69.05.82,39.26-32.09,73.06-72.04,73.97-39.38.9-72.04-30.2-73.01-69.51-1.01-41.23,29.92-73.16,71.2-73.5Zm2.74,17.91c-30.7.05-55.95,23.88-56.09,52.95-.14,29.31,23.78,53.63,52.48,53.36,31.07-.3,56.34-23.88,56.52-52.76.18-27.85-25.25-53.59-52.91-53.55Z"/>
</svg>