<?xml version="1.0" encoding="UTF-8"?>
<svg id="Layer_1" data-name="Layer 1" xmlns="http://www.w3.org/2000/svg" viewBox="0 0 572.4 828.64">
  <defs>
    <style>
      .cls-1 {
        fill: #193b2b;
        stroke-width: 0px;
      }
    </style>
  </defs>
  <path class="cls-1" d="m301.81,558.78c53.82-93.16,127.12-157.48,225.44-193.59,41.69-15.31,47.64-10.81,44.41,34-10.08,139.8-110.74,249.54-247.72,267.78-19.3,2.57-25.52,9.12-24.95,27.25,1.11,35.24,1.67,70.52,1.34,105.77-.1,10.95,6.56,28.86-13.38,28.64-16.63-.19-12.16-16.42-12.58-26.79-1.22-30.68-2.96-61.46-1.66-92.09,1.18-28.03-6.78-40.37-37.31-47.23-125.82-28.29-199.97-110.52-229.16-234.39-5.11-21.67-12.89-50.1,4.44-64.92,17.19-14.7,40.48,3.67,59.65,12.09,77.43,34.02,137.75,87.08,178.72,161.77,6.22,11.34,9.87,25.1,25.17,35.34,0-65.88.02-128.87-.02-191.86,0-8.7-4.05-13.74-12.05-18.41-78.16-45.6-102.4-95.1-85.72-179.32,13.21-66.71,50.55-121,93.98-171.59,11.99-13.96,23.49-15.8,36.44-.59,43.14,50.64,81.06,103.79,94.42,171.09,17.19,86.61-7.62,139.61-87.26,179.23-10.61,5.28-12.15,12.13-12.16,21.41-.07,58.8-.04,117.59-.04,176.39Zm-25.9-296.23c.33,0,.67,0,1,0,0-19.35-.51-38.73.22-58.05.34-9.12-3.9-23.27,12.61-22.38,12.41.67,11.68,12.43,11.89,21.18.86,36.42.95,72.86,1.75,109.28.16,7.52-3.95,17.5,4.19,21.97,9.03,4.96,17.36-2.02,24.88-6.98,28.65-18.89,43.03-46.49,46.25-79.85,7.82-80.94-28.19-145.36-77.85-204.68-12.43-14.85-19.03-4.46-26.37,4.48-32.14,39.08-59.34,81.19-70.42,131.19-12.84,57.91-6.49,111.35,44.09,151.26,6.2,4.89,12.8,11.11,21.31,8.05,10.2-3.67,5.99-13.58,6.24-20.82.64-18.19.21-36.42.21-54.64Zm268,148.34c.28-10.71,3.54-26.78-20.42-16.96-104.02,42.66-171.8,119.84-212.39,222.76-5.97,15.13-5.73,25.79,17.43,22.83,105.98-13.55,209.27-120.93,215.38-228.64Zm-509.53-21.5c-7,16.15-3.49,30.66-.24,44.69,23.72,102.62,91.3,164.56,187.19,199.28,12.18,4.41,28.85,14.61,38.27,4.13,10.86-12.08-2.61-27.28-7.91-40.43-4.24-10.51-9.85-20.48-15.08-30.57-44.22-85.25-109.69-145.97-202.21-177.11Z"/>
</svg>