<?xml version="1.0" encoding="UTF-8"?>
<svg id="Layer_1" data-name="Layer 1" xmlns="http://www.w3.org/2000/svg" viewBox="0 0 424.94 463.56">
  <defs>
    <style>
      .cls-1 {
        fill: #193b2b;
        stroke-width: 0px;
      }
    </style>
  </defs>
  <path class="cls-1" d="m.16,231.79C1.2,113.26,92.19,21.33,202.31,2.05c5.99-1.05,14.98-5.77,16.85,4.08,2.16,11.36-9.06,9.51-15.31,10.76C105.66,36.58,36.9,103.35,18.65,197.19c-26.03,133.85,77.08,258.26,209.76,250.06,79.92-4.94,136.41-47.33,166.47-121.68,29.09-71.94,16.9-138.39-34.52-196.26-55.85-62.85-162.89-67.07-225.77-10.32-61.75,55.73-68.17,155.61-13.96,217.19,40.48,45.98,111.83,57.15,164.15,25.7,50.14-30.14,72.41-93.95,51.92-148.73-23.67-63.27-98.16-87.58-152.53-49.77-43.38,30.17-48.23,95.8-9.51,131.41,18.1,16.65,39.8,22.19,63,14.85,23.48-7.43,37.02-25.33,41.84-49.3,5.38-26.78-15.31-51.41-40.26-48.44-12.06,1.44-21.25,7.39-23.43,19.72-1.98,11.17,4.4,16.96,15.6,17.79,3.47.26,5.49,2.65,4.81,6.32-1.04,5.57-4.76,8-10.24,8.71-16.24,2.09-30.24-15.78-25.77-33.72,3.98-15.98,13.83-27.19,29.82-32.03,17.94-5.43,34.14-1.59,47.22,11.82,17.73,18.17,23.82,39.95,15.18,64.14-9.94,27.8-29.25,46.74-58.78,52.33-45.21,8.56-91.88-26.88-99.57-74.47-13.01-80.47,67.07-144.5,144.88-115.85,77.57,28.56,107.16,128.38,57.68,197.27-35.52,49.45-84.84,69.69-144.34,58.37-65.76-12.52-104.95-55.17-119.9-119.31-17.54-75.27,16.93-152.67,81.02-186.34,74.7-39.25,161.52-26.99,216.39,30.54,66.27,69.49,73.65,176.99,17.61,256.61-58.35,82.9-164.42,112.51-255.7,71.37C48.19,407.54-3.27,324.05.16,231.79Z"/>
</svg>