<?xml version="1.0" encoding="utf-8"?>
<!-- Uploaded to: SVG Repo, www.svgrepo.com, Generator: SVG Repo Mixer Tools -->
<svg 
  width="800px" 
  height="800px" 
  viewBox="0 0 24 24" 
  fill="none" 
  xmlns="http://www.w3.org/2000/svg"
>
  <!-- Definišemo linearni gradijent za stroke -->
  <defs>
    <linearGradient id="lineGradient" x1="0%" y1="0%" x2="0%" y2="100%">
      <!-- Gornja boja (offset 0%) -->
      <stop offset="0%" stop-color="#01793B" />
      <!-- Donja boja (offset 100%) -->
      <stop offset="100%" stop-color="#F79CCE" />
    </linearGradient>
  </defs>

  <!-- Path koristi stroke="url(#lineGradient)" umesto stroke="#000000" -->
  <path
    d="M16 12C16 14.2091 14.2091 16 12 16C9.79086 16 8 14.2091 8 12C8 9.79086 9.79086 8 12 8C14.2091 8 16 9.79086 16 12ZM16 12V13.5C16 14.8807 17.1193 16 18.5 16V16C19.8807 16 21 14.8807 21 13.5V12C21 7.02944 16.9706 3 12 3C7.02944 3 3 7.02944 3 12C3 16.9706 7.02944 21 12 21H16"
    stroke="url(#lineGradient)"
    stroke-width="2"
    stroke-linecap="round"
    stroke-linejoin="round"
  />
</svg>
