<svg version="1.1" id="Layer_1" xmlns="http://www.w3.org/2000/svg" xmlns:xlink="http://www.w3.org/1999/xlink" x="0px" y="0px"
	 width="100%" viewBox="0 0 1250 1250" enable-background="new 0 0 1250 1250" xml:space="preserve">
<path fill="#01793B" opacity="1.000000" stroke="none" 
	d="
M693.000000,1251.000000 
	C462.000000,1251.000000 231.500000,1251.000000 1.000000,1251.000000 
	C1.000000,834.333313 1.000000,417.666656 1.000000,1.000000 
	C417.666656,1.000000 834.333313,1.000000 1251.000000,1.000000 
	C1251.000000,417.666656 1251.000000,834.333313 1251.000000,1251.000000 
	C1065.166626,1251.000000 879.333313,1251.000000 693.000000,1251.000000 
M323.169556,669.186035 
	C324.972931,674.188965 326.727631,679.210022 328.588715,684.191406 
	C334.333221,699.567017 334.068176,714.771851 327.493561,729.856323 
	C325.900879,733.510559 324.300568,737.185303 323.071960,740.970093 
	C318.491760,755.079468 320.308441,761.362366 331.882660,770.611572 
	C337.957245,775.465942 342.245392,780.948181 341.022766,789.282776 
	C340.880554,790.252258 340.723267,791.524597 341.203369,792.223511 
	C342.691772,794.390198 344.412445,797.913818 346.176788,797.994812 
	C348.437927,798.098572 351.681549,795.868469 352.943115,793.726135 
	C354.436646,791.190063 354.681366,787.682373 354.730865,784.583984 
	C354.819489,779.039612 356.758728,774.914917 361.932220,772.549744 
	C367.522766,769.994080 372.880127,770.200562 377.997345,773.789551 
	C384.128998,778.090027 387.593719,777.202698 389.516052,769.985413 
	C391.352722,763.089600 395.722992,760.102905 402.304871,759.437012 
	C404.785034,759.186157 407.285492,759.132202 409.777435,759.002136 
	C419.945038,758.471191 425.067139,753.290344 424.972870,743.176819 
	C424.802521,724.902893 418.584778,708.328796 410.272217,692.389709 
	C408.426544,688.850708 406.651733,685.257324 404.547699,681.873413 
	C394.884155,666.331726 391.792877,650.157593 398.105316,632.378296 
	C402.276489,620.630066 401.319122,608.594482 395.907593,597.375244 
	C388.310608,581.625122 389.054230,565.882874 394.387390,549.813965 
	C397.892944,539.251770 401.843445,528.767456 404.350708,517.959717 
	C408.393829,500.531525 403.989136,488.644562 388.499451,480.629578 
	C385.748688,479.206177 383.342010,476.981171 381.049927,474.834351 
	C375.013153,469.180176 367.926666,466.067993 359.718536,466.949371 
	C353.329559,467.635437 346.903198,468.906250 340.768433,470.805450 
	C331.845581,473.567719 323.097717,476.240845 313.541168,476.188904 
	C300.356110,476.117218 291.149872,482.935944 286.053467,494.924988 
	C284.123932,499.464172 282.719879,504.379822 282.021362,509.259155 
	C280.261719,521.550598 276.938324,533.151489 271.270599,544.332703 
	C268.459717,549.877991 268.285797,556.744446 266.810760,562.987610 
	C265.761322,567.429443 264.781128,571.919495 263.227722,576.190796 
	C262.769592,577.450439 260.245941,578.964233 259.061768,578.686462 
	C257.738770,578.376160 256.318359,576.302002 255.913116,574.742676 
	C255.213730,572.051697 254.948364,569.152649 255.060242,566.363281 
	C255.465790,556.250122 251.869080,547.958862 243.618530,542.178040 
	C229.651398,532.391785 225.372223,518.386414 224.926086,502.291382 
	C224.700821,494.164581 224.269104,485.958160 222.897217,477.965118 
	C219.362701,457.371429 196.408310,437.888580 171.896011,459.274384 
	C168.132843,462.557617 164.332458,465.798737 160.518646,469.023102 
	C155.170425,473.544647 149.251068,475.553497 142.053040,474.451965 
	C133.099472,473.081726 125.733589,476.563019 120.071396,483.558929 
	C114.641724,490.267487 112.293655,498.236755 113.799545,506.481323 
	C115.518753,515.893860 118.194069,525.231323 121.449837,534.241577 
	C127.106712,549.896790 127.876251,565.363464 122.192543,581.093140 
	C120.556450,585.621094 119.336769,590.299866 117.688614,594.822998 
	C111.287636,612.389282 111.420074,629.584351 119.656792,646.667725 
	C122.085442,651.704834 123.930649,657.222717 124.914215,662.722107 
	C128.860535,684.787231 125.351242,706.094299 117.454811,726.852600 
	C114.385521,734.921204 111.061638,742.928406 108.620346,751.190186 
	C106.257248,759.187256 107.848282,766.651611 114.104446,772.779419 
	C116.832771,775.451782 119.354538,778.360718 121.756973,781.334351 
	C125.784279,786.319336 127.216797,791.872192 124.965652,798.135925 
	C124.237053,800.163269 123.555237,802.270691 123.307991,804.394592 
	C122.798958,808.767029 124.156609,812.390930 128.659393,813.949097 
	C133.081573,815.479370 136.587357,813.475952 137.979019,809.546570 
	C139.477356,805.316101 140.453644,800.613770 140.316467,796.158630 
	C140.113068,789.553284 138.128067,782.988464 138.082657,776.398254 
	C138.057327,772.722778 139.742523,768.563232 141.878189,765.463196 
	C144.620834,761.481995 149.957413,761.992676 152.393692,765.671936 
	C157.126404,772.819214 160.411514,773.251648 166.962830,767.668030 
	C170.755966,764.435242 174.357819,760.892334 178.490692,758.162537 
	C185.870438,753.288330 193.334656,755.814880 196.881607,763.891602 
	C198.081375,766.623657 198.742737,769.898865 200.695312,771.912415 
	C202.910385,774.196777 206.297791,775.344299 209.175491,776.986084 
	C209.764709,773.956726 211.339432,770.712952 210.736572,767.943054 
	C209.507401,762.295532 210.101959,757.304993 213.448853,752.773743 
	C218.510284,745.921265 217.286072,739.799683 212.723114,733.096497 
	C209.915466,728.971802 207.449387,723.904541 206.987228,719.054932 
	C206.239609,711.210083 207.123718,703.187744 207.579773,695.255371 
	C208.255417,683.503418 209.896896,671.752869 209.710999,660.024231 
	C209.583588,651.985352 206.811768,644.018127 205.673111,635.955078 
	C204.905289,630.517944 205.144485,625.012268 208.688782,619.737061 
	C210.545242,620.785461 212.440674,621.505127 213.901993,622.739014 
	C222.303680,629.832642 229.392517,637.862427 231.758286,649.073425 
	C234.523590,662.177734 243.141876,672.532715 248.559692,684.404236 
	C252.445038,692.917908 258.017578,700.671875 262.999390,708.663757 
	C263.741730,709.854675 265.537842,711.352783 266.554291,711.160950 
	C267.782684,710.929077 269.250305,709.194824 269.611206,707.843018 
	C270.054535,706.182495 269.548401,704.233276 269.299774,702.429871 
	C268.477783,696.468323 270.085907,691.542175 274.076172,686.812561 
	C277.068542,683.265686 279.178925,678.767395 280.861786,674.378113 
	C282.755585,669.438660 283.616852,664.112915 285.133148,659.016479 
	C286.757355,653.557373 289.896851,649.093933 294.918793,646.242615 
	C303.157745,641.564697 307.181549,634.406799 308.013519,625.130066 
	C308.205261,622.991638 309.087280,620.915161 309.651611,618.810181 
	C310.217072,618.761719 310.782532,618.713196 311.348022,618.664673 
	C318.122894,626.801025 323.094330,635.617249 322.651459,647.016846 
	C322.375763,654.113586 322.866241,661.240173 323.169556,669.186035 
M837.013489,763.219604 
	C838.328796,763.003479 839.643250,762.782288 840.959473,762.571899 
	C854.576111,760.394958 863.597473,767.842529 864.117249,781.369202 
	C864.185852,783.155273 865.838684,786.322388 866.814209,786.344299 
	C869.153015,786.396973 872.376038,785.624451 873.679382,783.960693 
	C875.506775,781.627930 876.179321,778.245544 876.887878,775.205383 
	C880.857910,758.171814 895.922363,745.556213 913.380981,745.013367 
	C919.034668,744.837646 924.704163,745.234619 930.362671,745.141174 
	C940.944824,744.966492 947.983154,739.864075 949.836914,729.403320 
	C951.092407,722.318481 951.611206,714.622986 950.199463,707.658752 
	C948.104004,697.321899 944.584839,687.157471 940.618774,677.345154 
	C935.526917,664.747620 934.712036,652.612305 940.738892,640.202209 
	C943.204468,635.125305 945.571777,629.953369 947.391174,624.622498 
	C949.419556,618.679321 951.535034,612.596619 952.270264,606.414978 
	C954.063416,591.338501 942.322021,581.122009 927.462402,584.445557 
	C923.606262,585.307983 920.016541,587.309692 916.184021,588.340332 
	C908.372437,590.441101 900.572327,593.036255 892.596924,593.968628 
	C881.051941,595.318298 869.343201,595.198547 857.726929,596.023315 
	C840.922180,597.216431 828.665039,605.459167 820.812378,620.404541 
	C817.258972,627.167603 817.969360,631.414612 824.162109,635.742859 
	C828.029358,638.445679 830.041443,642.079529 830.087524,646.684265 
	C830.125793,650.505432 829.684082,654.328857 829.602783,658.154419 
	C829.524658,661.831055 829.176086,666.493164 834.063477,666.754456 
	C839.338318,667.036499 838.716736,662.183472 838.814331,658.623291 
	C838.960022,653.308838 838.522461,647.948364 839.066650,642.683228 
	C839.620667,637.323059 842.770996,635.166931 847.668213,634.781494 
	C853.736633,634.303894 859.810425,633.580750 865.800232,632.507751 
	C871.723816,631.446655 874.578857,632.353821 876.013245,638.224121 
	C878.694580,649.197327 881.208435,660.264526 882.803040,671.433777 
	C884.111694,680.600220 880.971558,684.492371 871.870605,685.994141 
	C861.399536,687.722168 852.240662,691.963806 843.781311,698.157227 
	C841.110046,700.113037 838.214478,701.829224 835.245850,703.300415 
	C824.279846,708.735046 817.533813,706.411682 813.176758,695.025452 
	C809.259705,684.789185 803.989502,675.502686 796.957642,667.140320 
	C795.142273,664.981445 793.604675,662.582275 792.011108,660.244629 
	C786.382690,651.988464 784.894531,643.155090 788.500122,633.684753 
	C792.226807,623.896606 793.275879,613.793640 793.400330,603.339600 
	C793.473083,597.230286 794.434692,590.319458 797.463318,585.240112 
	C802.522278,576.755798 808.857483,568.719299 815.988342,561.884949 
	C821.456909,556.643738 828.662964,552.839050 835.679749,549.699402 
	C842.203735,546.780212 846.556763,549.468140 850.043152,555.692688 
	C851.206116,557.769104 853.602966,560.589905 855.341492,560.525452 
	C857.278259,560.453735 859.871277,557.824463 860.823486,555.700806 
	C862.757446,551.387878 865.821838,548.867188 869.971741,547.080078 
	C874.242493,545.240906 878.353882,543.035583 882.583191,541.095642 
	C893.143738,536.251648 902.854919,539.090149 908.538574,549.307373 
	C910.386902,552.629883 910.790771,556.832153 911.484009,560.698547 
	C912.116150,564.224304 913.656799,566.621338 917.356018,567.099915 
	C921.167786,567.593323 924.023865,565.972290 925.133179,562.354553 
	C925.840637,560.047668 925.988220,557.430847 925.773315,555.007446 
	C925.294678,549.609863 927.714844,546.418030 932.674927,544.951904 
	C940.432800,542.658813 944.979248,537.387451 947.043701,529.758118 
	C949.986938,518.880859 953.430359,508.105499 955.712769,497.090271 
	C959.611816,478.273743 950.409241,455.764771 921.354614,464.370514 
	C920.557617,464.606598 919.743530,464.789490 918.956299,465.053558 
	C906.975464,469.072357 894.635498,470.556519 882.054810,470.145691 
	C863.257141,469.531799 844.461365,468.271820 825.666687,468.306458 
	C804.257385,468.345886 784.416565,474.207581 768.243774,488.948120 
	C746.733582,508.553345 727.430908,530.128235 713.168274,555.707092 
	C702.048889,575.648499 698.515625,596.862915 703.851196,619.353577 
	C706.268311,629.541992 708.879822,639.748840 710.285034,650.099060 
	C713.009094,670.165161 718.712952,688.932983 729.729431,706.156799 
	C735.828430,715.692383 739.076538,726.726868 737.765442,738.074768 
	C736.751404,746.851685 733.977966,755.487122 731.374878,763.998352 
	C729.442322,770.317017 727.406494,776.475342 730.082703,782.925232 
	C731.981079,787.500549 735.728760,790.025635 740.703064,789.721985 
	C745.531311,789.427246 747.960327,785.974365 748.996094,781.621338 
	C749.606812,779.054565 749.849487,776.370483 749.983459,773.725281 
	C750.500122,763.527832 755.288513,756.239014 763.439758,753.466492 
	C771.428406,750.749146 779.671936,753.123413 785.948059,761.188232 
	C793.966736,771.492493 804.083984,773.393738 815.819824,770.064514 
	C822.690063,768.115601 829.418030,765.665283 837.013489,763.219604 
M1154.085938,671.936096 
	C1152.705688,665.197449 1156.005615,659.947510 1159.737305,654.973633 
	C1168.428711,643.389038 1170.612549,630.668518 1167.214600,616.707153 
	C1166.358154,613.187622 1166.162476,609.460571 1166.042725,605.816467 
	C1165.494507,589.141785 1160.896851,573.955261 1149.437256,561.459961 
	C1143.356445,554.829712 1139.001099,547.487549 1136.278809,538.851562 
	C1132.216553,525.964844 1125.674805,521.115540 1112.242798,521.606384 
	C1092.130493,522.341248 1071.965332,523.087891 1051.972168,525.226807 
	C1031.787598,527.386230 1012.688477,533.815857 995.408691,544.901428 
	C984.191772,552.097534 976.117554,561.571533 975.519043,575.434326 
	C974.983093,587.849915 970.858948,599.087769 966.551636,610.494995 
	C964.068787,617.070435 962.580444,624.245056 961.993164,631.262878 
	C960.971375,643.471008 965.677856,654.448792 971.501709,664.885437 
	C977.020630,674.775696 981.097290,684.929504 980.175415,696.625244 
	C979.710571,702.522095 982.687378,706.799316 988.115479,709.285889 
	C989.324280,709.839722 990.498047,710.472412 991.674805,711.093628 
	C999.829163,715.398132 1002.025391,719.869690 1000.639954,729.042358 
	C1000.243225,731.669373 999.907898,734.330444 999.864807,736.981140 
	C999.760254,743.400085 1002.112732,747.574463 1006.263367,748.777588 
	C1010.768799,750.083435 1016.334839,747.715088 1019.237976,742.470032 
	C1021.305725,738.734375 1022.666321,734.564331 1024.008911,730.478516 
	C1028.036255,718.223022 1033.330078,714.383606 1046.089600,714.880249 
	C1048.246704,714.964233 1050.424561,715.150879 1052.540405,715.560669 
	C1062.048950,717.402100 1070.992188,716.249146 1079.553833,711.447815 
	C1083.580322,709.189697 1087.918213,707.233826 1092.354858,706.011719 
	C1102.147339,703.314331 1107.563965,705.925903 1112.417725,714.863342 
	C1114.920410,719.471558 1120.595825,719.856384 1123.754150,715.339844 
	C1125.234253,713.223267 1125.895264,710.519348 1126.845093,708.049988 
	C1127.974609,705.114014 1128.728516,701.994812 1130.167603,699.226501 
	C1131.960693,695.776978 1135.136841,693.071350 1139.017700,694.168335 
	C1141.571411,694.890137 1144.078003,697.512512 1145.537109,699.929077 
	C1147.324463,702.889038 1149.193604,705.862244 1152.656372,704.781006 
	C1155.657471,703.843750 1159.570801,701.620422 1160.437500,699.067871 
	C1161.655151,695.481812 1161.091919,690.889954 1160.078613,687.047852 
	C1158.777466,682.114502 1156.274292,677.498230 1154.085938,671.936096 
M438.230804,756.110168 
	C438.890137,756.860352 439.465088,757.711182 440.221741,758.345276 
	C449.285522,765.940186 451.426483,775.179688 447.052490,786.106995 
	C446.391144,787.759399 445.668213,789.867981 446.155487,791.386414 
	C446.885376,793.661011 448.323059,796.865479 450.085602,797.337524 
	C451.978149,797.844360 455.499603,796.249146 456.667755,794.484192 
	C458.164307,792.222961 458.502899,788.870361 458.468750,785.998413 
	C458.419586,781.861084 457.410065,777.745178 457.122650,773.598511 
	C456.472229,764.213745 460.212738,759.542725 469.079681,756.764038 
	C473.068726,755.513977 476.902252,753.230469 480.295868,750.724548 
	C488.509827,744.658997 496.831421,738.882446 506.994415,736.667847 
	C512.906067,735.379700 516.748596,738.961731 516.311890,744.936584 
	C516.178467,746.761780 515.864136,748.582825 515.859131,750.406372 
	C515.851379,753.234497 516.385681,756.122375 519.959900,756.055359 
	C523.817261,755.983093 525.003418,752.927856 524.713867,749.749573 
	C524.446655,746.816711 523.193176,743.985046 522.518555,741.075256 
	C521.616089,737.182800 522.377502,733.540955 525.858704,731.398865 
	C527.424988,730.435059 530.275452,730.087585 531.767029,730.894775 
	C533.201599,731.671204 533.726685,734.263062 534.456177,736.133423 
	C534.707214,736.777100 534.369507,737.650391 534.273743,738.721436 
	C538.647339,739.193298 539.416565,736.821350 539.119202,733.626709 
	C538.744934,729.605591 538.593933,725.868164 541.411255,722.299438 
	C550.171448,711.202759 549.106628,700.416748 537.562805,692.192078 
	C529.634033,686.543030 526.922241,679.156555 527.263123,670.296997 
	C527.723999,658.318420 524.966309,647.347168 519.655029,636.642029 
	C513.874939,624.991760 513.182068,612.771301 517.594727,600.297485 
	C519.638733,594.519531 521.490967,588.579590 522.530701,582.557861 
	C525.984741,562.552063 512.566650,549.158508 492.684021,552.529419 
	C489.106018,553.136047 485.232788,553.664307 482.188507,555.425842 
	C474.771118,559.717712 468.040955,559.222290 461.318329,554.284729 
	C460.527313,553.703674 459.535248,553.397583 458.639526,552.957642 
	C446.310272,546.902222 436.432434,550.382507 431.052704,563.093994 
	C426.040009,574.938293 428.693176,586.276062 434.376373,597.152527 
	C436.376343,600.980042 438.725922,604.629578 441.002106,608.307007 
	C445.557922,615.667542 446.573730,623.514893 444.291138,631.801514 
	C442.834229,637.090637 441.378906,642.386902 439.684448,647.602539 
	C436.357330,657.843628 436.031555,668.114685 438.357208,678.628418 
	C439.574005,684.129333 440.987518,689.857056 440.646545,695.379517 
	C439.756653,709.794434 437.975006,724.155518 436.493622,738.532288 
	C435.901337,744.280640 434.217377,750.086426 438.230804,756.110168 
M576.664490,637.073425 
	C577.748291,640.881470 579.327820,644.628723 579.803955,648.511292 
	C580.591797,654.935425 580.641846,661.448547 581.053833,667.920898 
	C581.349731,672.569580 581.322449,677.297241 582.260925,681.819214 
	C582.664856,683.765503 585.374084,686.835815 586.636780,686.652039 
	C588.929199,686.318420 591.973267,684.343018 592.773193,682.297791 
	C593.756470,679.783997 593.084167,676.435913 592.539673,673.559753 
	C591.893982,670.148987 590.507690,666.886108 589.642029,663.507996 
	C586.175842,649.981873 591.492493,640.929504 605.382080,639.132446 
	C614.668884,637.930847 624.309021,638.122253 633.656189,639.049561 
	C646.508484,640.324707 649.424316,644.039368 651.695496,656.578308 
	C652.107300,658.851807 654.678345,660.734253 656.252502,662.797302 
	C658.093933,661.154907 661.067688,659.802429 661.575562,657.818665 
	C663.493958,650.325623 668.213684,646.143921 674.957581,642.891418 
	C688.498901,636.360596 692.148010,625.846680 686.989258,611.880310 
	C685.408081,607.599609 684.378296,602.938904 684.089600,598.389221 
	C683.113708,583.011169 675.254395,573.382080 660.227295,569.919250 
	C649.168823,567.370972 638.290955,569.065247 627.699036,572.075073 
	C612.231750,576.470459 598.175476,575.918030 585.001709,565.093445 
	C577.458801,558.895508 568.161316,558.149353 559.209473,563.105286 
	C549.765869,568.333435 545.260254,576.720520 545.210388,587.328552 
	C545.143860,601.495422 550.981506,612.941528 561.711548,622.179321 
	C566.845093,626.598877 571.408936,631.680237 576.664490,637.073425 
M440.249573,498.698273 
	C432.904999,516.323425 444.540955,532.212891 463.071716,533.351257 
	C471.070984,533.842651 478.877258,536.970642 486.861603,538.393799 
	C491.812347,539.276306 497.160950,540.314514 501.929291,539.332458 
	C511.710266,537.317871 516.011230,530.196411 515.739136,517.495483 
	C515.566956,509.456085 517.298584,502.490906 522.696716,496.330200 
	C527.083801,491.323364 527.531189,485.454742 524.249268,479.630341 
	C515.830811,464.690216 506.757904,462.454346 494.802185,467.357452 
	C486.195618,470.887024 477.744385,471.533173 469.925568,465.017426 
	C468.322418,463.681458 466.149353,462.887787 464.113342,462.237488 
	C455.142822,459.372314 447.132019,463.032776 444.154785,471.992157 
	C442.721863,476.304321 442.777222,481.112213 442.169739,485.697083 
	C441.629669,489.773102 441.105011,493.851227 440.249573,498.698273 
z"/>
<path fill="#F59CCE" opacity="1.000000" stroke="none" 
	d="
M323.091187,668.769653 
	C322.866241,661.240173 322.375763,654.113586 322.651459,647.016846 
	C323.094330,635.617249 318.122894,626.801025 311.348022,618.664673 
	C310.782532,618.713196 310.217072,618.761719 309.651611,618.810181 
	C309.087280,620.915161 308.205261,622.991638 308.013519,625.130066 
	C307.181549,634.406799 303.157745,641.564697 294.918793,646.242615 
	C289.896851,649.093933 286.757355,653.557373 285.133148,659.016479 
	C283.616852,664.112915 282.755585,669.438660 280.861786,674.378113 
	C279.178925,678.767395 277.068542,683.265686 274.076172,686.812561 
	C270.085907,691.542175 268.477783,696.468323 269.299774,702.429871 
	C269.548401,704.233276 270.054535,706.182495 269.611206,707.843018 
	C269.250305,709.194824 267.782684,710.929077 266.554291,711.160950 
	C265.537842,711.352783 263.741730,709.854675 262.999390,708.663757 
	C258.017578,700.671875 252.445038,692.917908 248.559692,684.404236 
	C243.141876,672.532715 234.523590,662.177734 231.758286,649.073425 
	C229.392517,637.862427 222.303680,629.832642 213.901993,622.739014 
	C212.440674,621.505127 210.545242,620.785461 208.688782,619.737061 
	C205.144485,625.012268 204.905289,630.517944 205.673111,635.955078 
	C206.811768,644.018127 209.583588,651.985352 209.710999,660.024231 
	C209.896896,671.752869 208.255417,683.503418 207.579773,695.255371 
	C207.123718,703.187744 206.239609,711.210083 206.987228,719.054932 
	C207.449387,723.904541 209.915466,728.971802 212.723114,733.096497 
	C217.286072,739.799683 218.510284,745.921265 213.448853,752.773743 
	C210.101959,757.304993 209.507401,762.295532 210.736572,767.943054 
	C211.339432,770.712952 209.764709,773.956726 209.175507,776.986084 
	C206.297791,775.344299 202.910385,774.196777 200.695312,771.912415 
	C198.742737,769.898865 198.081375,766.623657 196.881607,763.891602 
	C193.334656,755.814880 185.870438,753.288330 178.490692,758.162537 
	C174.357819,760.892334 170.755966,764.435242 166.962830,767.668030 
	C160.411514,773.251648 157.126404,772.819214 152.393692,765.671936 
	C149.957413,761.992676 144.620834,761.481995 141.878189,765.463196 
	C139.742523,768.563232 138.057327,772.722778 138.082657,776.398254 
	C138.128067,782.988464 140.113068,789.553284 140.316467,796.158630 
	C140.453644,800.613770 139.477356,805.316101 137.979019,809.546570 
	C136.587357,813.475952 133.081573,815.479370 128.659393,813.949097 
	C124.156609,812.390930 122.798958,808.767029 123.307991,804.394592 
	C123.555237,802.270691 124.237053,800.163269 124.965652,798.135925 
	C127.216797,791.872192 125.784279,786.319336 121.756973,781.334351 
	C119.354538,778.360718 116.832771,775.451782 114.104446,772.779419 
	C107.848282,766.651611 106.257248,759.187256 108.620346,751.190186 
	C111.061638,742.928406 114.385521,734.921204 117.454811,726.852600 
	C125.351242,706.094299 128.860535,684.787231 124.914215,662.722107 
	C123.930649,657.222717 122.085442,651.704834 119.656792,646.667725 
	C111.420074,629.584351 111.287636,612.389282 117.688614,594.822998 
	C119.336769,590.299866 120.556450,585.621094 122.192543,581.093140 
	C127.876251,565.363464 127.106712,549.896790 121.449837,534.241577 
	C118.194069,525.231323 115.518753,515.893860 113.799545,506.481323 
	C112.293655,498.236755 114.641724,490.267487 120.071396,483.558929 
	C125.733589,476.563019 133.099472,473.081726 142.053040,474.451965 
	C149.251068,475.553497 155.170425,473.544647 160.518646,469.023102 
	C164.332458,465.798737 168.132843,462.557617 171.896011,459.274384 
	C196.408310,437.888580 219.362701,457.371429 222.897217,477.965118 
	C224.269104,485.958160 224.700821,494.164581 224.926086,502.291382 
	C225.372223,518.386414 229.651398,532.391785 243.618530,542.178040 
	C251.869080,547.958862 255.465790,556.250122 255.060242,566.363281 
	C254.948364,569.152649 255.213730,572.051697 255.913116,574.742676 
	C256.318359,576.302002 257.738770,578.376160 259.061768,578.686462 
	C260.245941,578.964233 262.769592,577.450439 263.227722,576.190796 
	C264.781128,571.919495 265.761322,567.429443 266.810760,562.987610 
	C268.285797,556.744446 268.459717,549.877991 271.270599,544.332703 
	C276.938324,533.151489 280.261719,521.550598 282.021362,509.259155 
	C282.719879,504.379822 284.123932,499.464172 286.053467,494.924988 
	C291.149872,482.935944 300.356110,476.117218 313.541168,476.188904 
	C323.097717,476.240845 331.845581,473.567719 340.768433,470.805450 
	C346.903198,468.906250 353.329559,467.635437 359.718536,466.949371 
	C367.926666,466.067993 375.013153,469.180176 381.049927,474.834351 
	C383.342010,476.981171 385.748688,479.206177 388.499451,480.629578 
	C403.989136,488.644562 408.393829,500.531525 404.350708,517.959717 
	C401.843445,528.767456 397.892944,539.251770 394.387390,549.813965 
	C389.054230,565.882874 388.310608,581.625122 395.907593,597.375244 
	C401.319122,608.594482 402.276489,620.630066 398.105316,632.378296 
	C391.792877,650.157593 394.884155,666.331726 404.547699,681.873413 
	C406.651733,685.257324 408.426544,688.850708 410.272217,692.389709 
	C418.584778,708.328796 424.802521,724.902893 424.972870,743.176819 
	C425.067139,753.290344 419.945038,758.471191 409.777435,759.002136 
	C407.285492,759.132202 404.785034,759.186157 402.304871,759.437012 
	C395.722992,760.102905 391.352722,763.089600 389.516052,769.985413 
	C387.593719,777.202698 384.128998,778.090027 377.997345,773.789551 
	C372.880127,770.200562 367.522766,769.994080 361.932220,772.549744 
	C356.758728,774.914917 354.819489,779.039612 354.730865,784.583984 
	C354.681366,787.682373 354.436646,791.190063 352.943115,793.726135 
	C351.681549,795.868469 348.437927,798.098572 346.176788,797.994812 
	C344.412445,797.913818 342.691772,794.390198 341.203369,792.223511 
	C340.723267,791.524597 340.880554,790.252258 341.022766,789.282776 
	C342.245392,780.948181 337.957245,775.465942 331.882660,770.611572 
	C320.308441,761.362366 318.491760,755.079468 323.071960,740.970093 
	C324.300568,737.185303 325.900879,733.510559 327.493561,729.856323 
	C334.068176,714.771851 334.333221,699.567017 328.588715,684.191406 
	C326.727631,679.210022 324.972931,674.188965 323.091187,668.769653 
M122.178795,744.748840 
	C124.642822,751.585815 127.779633,753.533691 133.618423,750.781555 
	C138.709869,748.381653 142.556473,749.024109 146.705460,752.713806 
	C151.044327,756.572327 154.747040,756.529114 159.268326,752.935486 
	C162.371231,750.469177 165.001785,747.408447 167.843491,744.613403 
	C167.555634,744.267883 167.267761,743.922424 166.979889,743.576904 
	C164.974197,745.143860 162.989166,746.738220 160.958344,748.271912 
	C157.025650,751.241943 152.741013,752.424133 148.663742,748.991394 
	C143.311829,744.485596 138.106873,743.565002 131.888535,747.343140 
	C128.363708,749.484863 125.113998,748.554138 123.943062,743.201416 
	C124.852303,738.732117 125.761551,734.262878 126.670799,729.793579 
	C126.264259,729.697937 125.857719,729.602295 125.451187,729.506592 
	C124.354355,734.348206 123.257530,739.189819 122.178795,744.748840 
M269.552063,681.785767 
	C274.334076,675.413025 277.335571,668.313843 278.248688,660.373047 
	C279.022491,653.643860 281.769867,648.149170 287.234131,643.817505 
	C293.055267,639.203003 296.128601,632.871826 297.222626,625.463196 
	C299.047821,613.103088 302.144257,611.259216 314.376801,614.751099 
	C314.596954,614.813904 314.900818,614.583618 315.173828,614.487122 
	C308.133484,607.010803 302.257050,607.085327 296.400085,615.283691 
	C294.039948,618.587402 292.961029,622.778320 291.028290,626.421875 
	C288.108917,631.925476 284.813019,637.231018 281.945526,642.759888 
	C280.004883,646.501587 278.170685,650.371216 276.914490,654.379700 
	C274.449677,662.244873 272.403564,670.241882 270.229584,678.196777 
	C269.857513,679.558044 269.710571,680.980957 269.328979,682.489502 
	C269.328979,682.489502 269.222015,682.228088 269.222015,682.228088 
	C269.222015,682.228088 269.389526,682.459900 269.552063,681.785767 
M359.246399,764.047791 
	C364.319794,762.173523 369.350708,761.613831 374.821960,762.781616 
	C377.413635,763.334717 381.241791,762.586304 383.181915,760.899902 
	C390.419006,754.609558 398.855194,751.234131 407.789307,748.313843 
	C416.547760,745.450989 420.678253,739.110840 419.845703,729.941101 
	C419.422424,725.278992 417.942352,720.413208 415.744720,716.274109 
	C411.120422,707.564514 405.707672,699.273499 400.618500,690.810730 
	C402.189972,698.252258 405.085083,705.237671 407.446045,712.399109 
	C409.300140,718.023132 411.258148,723.795227 411.789520,729.627258 
	C412.464508,737.035339 408.836182,740.562378 401.934753,743.249329 
	C396.774292,745.258484 391.813995,748.049377 387.216217,751.159729 
	C382.746460,754.183655 378.547302,757.167236 372.839508,757.296265 
	C367.300262,757.421387 362.554382,759.739258 358.493683,764.105774 
	C358.633057,764.202393 358.772430,764.299072 358.911835,764.395691 
	C358.775208,764.125427 358.638611,763.855225 359.246399,764.047791 
M184.395584,463.825043 
	C177.606888,464.176056 173.824387,468.922058 170.184158,473.726135 
	C164.861786,480.750214 158.217773,485.719055 149.454086,487.418213 
	C146.034485,488.081238 142.525696,488.269073 139.076767,488.798676 
	C125.366295,490.903992 119.197281,502.215118 124.750992,514.994751 
	C125.725792,502.774170 129.811279,498.161926 142.024490,495.578735 
	C144.950073,494.959930 147.931641,494.589325 150.836517,493.892242 
	C159.349030,491.849487 166.969040,488.385376 170.940170,479.877991 
	C174.634003,471.964630 179.217056,465.368256 189.826096,466.604034 
	C189.731247,466.166443 189.636398,465.728882 189.541550,465.291321 
	C188.094376,464.803589 186.647217,464.315857 184.395584,463.825043 
M379.615326,568.891479 
	C380.348175,574.115540 381.294006,579.250854 385.593903,583.644714 
	C383.686615,569.939209 385.224457,560.888855 391.385040,542.678955 
	C394.563995,533.282471 397.237335,523.682556 399.513245,514.027039 
	C400.570984,509.539703 400.647919,504.615631 397.185638,500.367096 
	C398.802368,517.929260 391.125031,532.486816 383.617310,547.394897 
	C380.575287,553.435425 380.756531,561.099121 379.615326,568.891479 
M310.324219,483.229095 
	C295.328888,489.265411 284.625397,509.428467 288.815399,524.116150 
	C289.239197,522.838989 289.744904,521.782043 289.935516,520.671143 
	C293.326233,500.907440 305.187042,490.051819 324.600403,485.761353 
	C331.389374,484.260895 337.483307,479.615784 343.894653,476.406708 
	C343.683075,475.962952 343.471466,475.519196 343.259888,475.075409 
	C342.038971,475.475861 340.696442,475.670624 339.616333,476.309235 
	C330.819489,481.510010 321.445740,484.161713 310.324219,483.229095 
z"/>
<path fill="#F49CCE" opacity="1.000000" stroke="none" 
	d="
M836.611755,763.330078 
	C829.418030,765.665283 822.690063,768.115601 815.819824,770.064514 
	C804.083984,773.393738 793.966736,771.492493 785.948059,761.188232 
	C779.671936,753.123413 771.428406,750.749146 763.439758,753.466492 
	C755.288513,756.239014 750.500122,763.527832 749.983459,773.725281 
	C749.849487,776.370483 749.606812,779.054565 748.996094,781.621338 
	C747.960327,785.974365 745.531311,789.427246 740.703064,789.721985 
	C735.728760,790.025635 731.981079,787.500549 730.082703,782.925232 
	C727.406494,776.475342 729.442322,770.317017 731.374878,763.998352 
	C733.977966,755.487122 736.751404,746.851685 737.765442,738.074768 
	C739.076538,726.726868 735.828430,715.692383 729.729431,706.156799 
	C718.712952,688.932983 713.009094,670.165161 710.285034,650.099060 
	C708.879822,639.748840 706.268311,629.541992 703.851196,619.353577 
	C698.515625,596.862915 702.048889,575.648499 713.168274,555.707092 
	C727.430908,530.128235 746.733582,508.553345 768.243774,488.948120 
	C784.416565,474.207581 804.257385,468.345886 825.666687,468.306458 
	C844.461365,468.271820 863.257141,469.531799 882.054810,470.145691 
	C894.635498,470.556519 906.975464,469.072357 918.956299,465.053558 
	C919.743530,464.789490 920.557617,464.606598 921.354614,464.370514 
	C950.409241,455.764771 959.611816,478.273743 955.712769,497.090271 
	C953.430359,508.105499 949.986938,518.880859 947.043701,529.758118 
	C944.979248,537.387451 940.432800,542.658813 932.674927,544.951904 
	C927.714844,546.418030 925.294678,549.609863 925.773315,555.007446 
	C925.988220,557.430847 925.840637,560.047668 925.133179,562.354553 
	C924.023865,565.972290 921.167786,567.593323 917.356018,567.099915 
	C913.656799,566.621338 912.116150,564.224304 911.484009,560.698547 
	C910.790771,556.832153 910.386902,552.629883 908.538574,549.307373 
	C902.854919,539.090149 893.143738,536.251648 882.583191,541.095642 
	C878.353882,543.035583 874.242493,545.240906 869.971741,547.080078 
	C865.821838,548.867188 862.757446,551.387878 860.823486,555.700806 
	C859.871277,557.824463 857.278259,560.453735 855.341492,560.525452 
	C853.602966,560.589905 851.206116,557.769104 850.043152,555.692688 
	C846.556763,549.468140 842.203735,546.780212 835.679749,549.699402 
	C828.662964,552.839050 821.456909,556.643738 815.988342,561.884949 
	C808.857483,568.719299 802.522278,576.755798 797.463318,585.240112 
	C794.434692,590.319458 793.473083,597.230286 793.400330,603.339600 
	C793.275879,613.793640 792.226807,623.896606 788.500122,633.684753 
	C784.894531,643.155090 786.382690,651.988464 792.011108,660.244629 
	C793.604675,662.582275 795.142273,664.981445 796.957642,667.140320 
	C803.989502,675.502686 809.259705,684.789185 813.176758,695.025452 
	C817.533813,706.411682 824.279846,708.735046 835.245850,703.300415 
	C838.214478,701.829224 841.110046,700.113037 843.781311,698.157227 
	C852.240662,691.963806 861.399536,687.722168 871.870605,685.994141 
	C880.971558,684.492371 884.111694,680.600220 882.803040,671.433777 
	C881.208435,660.264526 878.694580,649.197327 876.013245,638.224121 
	C874.578857,632.353821 871.723816,631.446655 865.800232,632.507751 
	C859.810425,633.580750 853.736633,634.303894 847.668213,634.781494 
	C842.770996,635.166931 839.620667,637.323059 839.066650,642.683228 
	C838.522461,647.948364 838.960022,653.308838 838.814331,658.623291 
	C838.716736,662.183472 839.338318,667.036499 834.063477,666.754456 
	C829.176086,666.493164 829.524658,661.831055 829.602783,658.154419 
	C829.684082,654.328857 830.125793,650.505432 830.087524,646.684265 
	C830.041443,642.079529 828.029358,638.445679 824.162109,635.742859 
	C817.969360,631.414612 817.258972,627.167603 820.812378,620.404541 
	C828.665039,605.459167 840.922180,597.216431 857.726929,596.023315 
	C869.343201,595.198547 881.051941,595.318298 892.596924,593.968628 
	C900.572327,593.036255 908.372437,590.441101 916.184021,588.340332 
	C920.016541,587.309692 923.606262,585.307983 927.462402,584.445557 
	C942.322021,581.122009 954.063416,591.338501 952.270264,606.414978 
	C951.535034,612.596619 949.419556,618.679321 947.391174,624.622498 
	C945.571777,629.953369 943.204468,635.125305 940.738892,640.202209 
	C934.712036,652.612305 935.526917,664.747620 940.618774,677.345154 
	C944.584839,687.157471 948.104004,697.321899 950.199463,707.658752 
	C951.611206,714.622986 951.092407,722.318481 949.836914,729.403320 
	C947.983154,739.864075 940.944824,744.966492 930.362671,745.141174 
	C924.704163,745.234619 919.034668,744.837646 913.380981,745.013367 
	C895.922363,745.556213 880.857910,758.171814 876.887878,775.205383 
	C876.179321,778.245544 875.506775,781.627930 873.679382,783.960693 
	C872.376038,785.624451 869.153015,786.396973 866.814209,786.344299 
	C865.838684,786.322388 864.185852,783.155273 864.117249,781.369202 
	C863.597473,767.842529 854.576111,760.394958 840.959473,762.571899 
	C839.643250,762.782288 838.328796,763.003479 836.611755,763.330078 
M717.052612,575.749084 
	C717.381287,574.808167 717.697083,573.862549 718.040649,572.927063 
	C723.790222,557.270935 731.812988,543.974060 749.283508,538.687561 
	C757.132629,536.312439 762.073120,529.993774 764.503052,521.988403 
	C766.094971,516.743835 767.891113,511.560059 769.422974,506.298737 
	C771.642212,498.676331 776.201111,492.882629 783.279480,489.485107 
	C791.294922,485.637817 799.574341,482.340851 807.070679,479.094025 
	C807.125427,479.099182 806.210083,478.888397 805.312195,478.946472 
	C786.249451,480.179016 766.791260,494.995331 760.981018,513.267883 
	C758.094788,522.344788 752.706421,528.137390 743.866821,531.942566 
	C737.956787,534.486633 732.111267,538.497314 727.847046,543.285645 
	C717.598389,554.794189 711.045288,568.437805 709.366394,583.970642 
	C708.619934,590.876343 708.274536,597.904053 710.588074,605.588806 
	C712.844360,595.163025 714.860718,585.845703 717.052612,575.749084 
M773.693054,745.794678 
	C778.814941,745.106506 783.224976,746.691711 786.973328,750.125916 
	C789.794128,752.710510 792.410583,755.520508 795.262329,758.068604 
	C803.020752,765.001038 814.908264,765.913391 821.461426,760.173523 
	C821.133728,760.131470 820.798523,760.023621 820.479858,760.060303 
	C819.655151,760.155334 818.805969,760.213928 818.022278,760.462585 
	C809.856384,763.054199 803.367371,760.274780 797.887329,754.230530 
	C795.540344,751.641968 793.255249,748.996094 790.870117,746.443481 
	C785.123413,740.293213 778.290527,738.200256 770.056213,740.632141 
	C766.411255,741.708679 762.622803,742.638367 758.851318,742.879272 
	C750.137390,743.435791 745.658020,738.280823 746.258179,729.595337 
	C746.575134,725.007935 747.376892,719.785339 745.654541,715.861328 
	C741.754211,706.975403 736.431030,698.713196 731.634216,690.226868 
	C731.527649,690.038269 730.795593,690.203186 730.328064,690.203186 
	C737.433411,704.826050 745.208130,718.818604 742.358398,736.123230 
	C740.767761,745.782227 748.000183,751.332581 757.787781,749.417725 
	C762.831909,748.430847 767.802246,747.066467 773.693054,745.794678 
M820.214844,717.641968 
	C831.985168,719.209656 842.284119,715.798462 851.174744,708.150391 
	C857.749146,702.494995 865.105774,698.577026 873.601257,696.790466 
	C874.793091,696.539856 875.933716,696.045105 878.330017,695.259399 
	C867.727051,693.796875 859.773987,696.975830 851.956299,701.469360 
	C845.512756,705.173035 838.884094,708.816284 831.910767,711.277100 
	C820.687439,715.237427 812.981567,711.443237 807.987366,700.637085 
	C806.455078,697.321777 805.239746,693.856873 803.642395,690.575745 
	C802.407959,688.039795 800.803833,685.683716 799.364075,683.247681 
	C800.468750,690.050171 802.235779,696.431274 804.044128,702.800659 
	C806.281738,710.682190 811.199463,715.773376 820.214844,717.641968 
M935.173584,686.296936 
	C934.262512,684.139404 933.351440,681.981873 932.035034,678.864319 
	C931.422546,680.574707 931.082275,681.029663 931.147034,681.416870 
	C932.722473,690.838928 935.328064,700.210999 935.738464,709.679199 
	C936.500916,727.271118 932.920593,730.756165 915.421021,732.980286 
	C915.091248,733.022156 914.755737,733.031189 914.430176,733.093445 
	C906.417114,734.627197 898.100342,735.261902 890.237244,741.398438 
	C895.982849,740.092896 900.417175,738.704285 904.953430,738.149170 
	C910.875488,737.424316 916.904236,737.599487 922.840881,736.959229 
	C934.261597,735.727417 939.707031,730.244019 941.323364,718.959351 
	C942.943665,707.647888 939.328796,697.311157 935.173584,686.296936 
M943.037231,607.132935 
	C941.700195,610.850464 940.344116,614.561340 939.031494,618.287537 
	C937.660828,622.178528 936.331848,626.084167 934.984741,629.983459 
	C935.470093,630.172668 935.955505,630.361877 936.440918,630.551086 
	C939.787781,622.903564 943.929199,615.490356 946.271729,607.546570 
	C948.943054,598.487854 942.716064,590.293335 933.294678,589.744202 
	C928.680298,589.475342 923.963318,590.967773 919.292725,591.663025 
	C924.883728,592.502563 930.404724,591.756287 935.614136,592.710632 
	C940.915283,593.681763 943.256897,598.991638 943.037231,607.132935 
M945.779297,492.333588 
	C945.636414,493.183929 945.493469,494.034271 945.256470,495.444550 
	C949.762085,490.133759 950.202026,483.904297 946.843567,478.580322 
	C943.802246,473.759216 938.075989,471.288757 932.837219,472.537567 
	C942.779602,475.363861 946.181946,480.337372 945.779297,492.333588 
z"/>
<path fill="#F49CCE" opacity="1.000000" stroke="none" 
	d="
M1154.187500,672.340698 
	C1156.274292,677.498230 1158.777466,682.114502 1160.078613,687.047852 
	C1161.091919,690.889954 1161.655151,695.481812 1160.437500,699.067871 
	C1159.570801,701.620422 1155.657471,703.843750 1152.656372,704.781006 
	C1149.193604,705.862244 1147.324463,702.889038 1145.537109,699.929077 
	C1144.078003,697.512512 1141.571411,694.890137 1139.017700,694.168335 
	C1135.136841,693.071350 1131.960693,695.776978 1130.167603,699.226501 
	C1128.728516,701.994812 1127.974609,705.114014 1126.845093,708.049988 
	C1125.895264,710.519348 1125.234253,713.223267 1123.754150,715.339844 
	C1120.595825,719.856384 1114.920410,719.471558 1112.417725,714.863342 
	C1107.563965,705.925903 1102.147339,703.314331 1092.354858,706.011719 
	C1087.918213,707.233826 1083.580322,709.189697 1079.553833,711.447815 
	C1070.992188,716.249146 1062.048950,717.402100 1052.540405,715.560669 
	C1050.424561,715.150879 1048.246704,714.964233 1046.089600,714.880249 
	C1033.330078,714.383606 1028.036255,718.223022 1024.008911,730.478516 
	C1022.666321,734.564331 1021.305725,738.734375 1019.237976,742.470032 
	C1016.334839,747.715088 1010.768799,750.083435 1006.263367,748.777588 
	C1002.112732,747.574463 999.760254,743.400085 999.864807,736.981140 
	C999.907898,734.330444 1000.243225,731.669373 1000.639954,729.042358 
	C1002.025391,719.869690 999.829163,715.398132 991.674805,711.093628 
	C990.498047,710.472412 989.324280,709.839722 988.115479,709.285889 
	C982.687378,706.799316 979.710571,702.522095 980.175415,696.625244 
	C981.097290,684.929504 977.020630,674.775696 971.501709,664.885437 
	C965.677856,654.448792 960.971375,643.471008 961.993164,631.262878 
	C962.580444,624.245056 964.068787,617.070435 966.551636,610.494995 
	C970.858948,599.087769 974.983093,587.849915 975.519043,575.434326 
	C976.117554,561.571533 984.191772,552.097534 995.408691,544.901428 
	C1012.688477,533.815857 1031.787598,527.386230 1051.972168,525.226807 
	C1071.965332,523.087891 1092.130493,522.341248 1112.242798,521.606384 
	C1125.674805,521.115540 1132.216553,525.964844 1136.278809,538.851562 
	C1139.001099,547.487549 1143.356445,554.829712 1149.437256,561.459961 
	C1160.896851,573.955261 1165.494507,589.141785 1166.042725,605.816467 
	C1166.162476,609.460571 1166.358154,613.187622 1167.214600,616.707153 
	C1170.612549,630.668518 1168.428711,643.389038 1159.737305,654.973633 
	C1156.005615,659.947510 1152.705688,665.197449 1154.187500,672.340698 
M992.294006,560.400757 
	C995.553955,554.883179 1000.679260,552.405457 1006.798950,552.091553 
	C1018.563965,551.488159 1029.106934,548.560852 1038.218018,540.268555 
	C1042.167725,536.673828 1048.050903,534.838684 1053.364258,533.210144 
	C1058.656494,531.588013 1064.334839,531.226257 1069.843994,530.311890 
	C1056.303101,529.125671 1043.023315,529.145691 1032.215820,539.344971 
	C1027.080322,544.191345 1021.034790,546.961609 1014.148743,548.127686 
	C1010.710693,548.709839 1007.271362,549.304993 1003.862976,550.035828 
	C998.050354,551.282166 993.396667,554.142517 990.364502,560.295898 
	C985.619629,568.921936 985.307068,578.406799 984.950256,587.877197 
	C987.262756,578.899048 989.575317,569.920959 992.294006,560.400757 
M1112.411621,632.950806 
	C1117.166992,631.239868 1122.165161,628.994141 1120.663086,622.950439 
	C1118.281006,613.366821 1114.885742,604.035095 1111.788940,594.182922 
	C1110.428711,595.177002 1109.518311,595.832642 1108.618164,596.501892 
	C1105.080811,599.131348 1102.719971,598.175110 1102.197632,593.843323 
	C1102.059082,592.694214 1102.171509,591.515259 1102.161499,590.350098 
	C1102.113037,584.719299 1100.263794,581.979126 1094.809692,581.794922 
	C1088.544067,581.583191 1082.167480,581.970154 1075.978638,582.965088 
	C1070.308350,583.876648 1067.733398,587.589966 1067.998169,593.287170 
	C1068.166626,596.911743 1069.634888,600.532959 1069.451782,604.100891 
	C1069.267700,607.688049 1068.313965,611.518799 1066.575073,614.611694 
	C1065.818604,615.957397 1061.938965,616.609802 1060.069824,615.935608 
	C1058.537354,615.382690 1057.020874,612.390869 1057.038696,610.494690 
	C1057.065674,607.643555 1058.627808,604.841797 1059.189697,601.951477 
	C1059.837036,598.620483 1060.959839,595.055725 1060.362305,591.876953 
	C1059.119507,585.264160 1053.288452,580.854797 1046.886841,580.543640 
	C1039.985596,580.208191 1032.406616,585.021179 1030.442993,592.013733 
	C1029.166016,596.561218 1028.768311,601.536865 1028.968994,606.278625 
	C1029.335083,614.925354 1028.325806,623.043152 1024.426880,630.950500 
	C1020.977783,637.945862 1022.196106,643.896301 1028.785645,647.989197 
	C1036.742432,652.931274 1045.165039,658.021667 1054.088135,660.306580 
	C1068.763062,664.064453 1082.536621,661.671326 1091.862183,647.503540 
	C1096.594482,640.314026 1103.447388,635.696777 1112.411621,632.950806 
M1026.507324,713.995056 
	C1030.113403,709.420410 1034.967529,707.799988 1040.608276,708.026245 
	C1044.593628,708.186157 1048.587402,708.222107 1052.563599,708.506287 
	C1060.514893,709.074524 1067.815674,707.107971 1075.080688,703.398254 
	C1074.419067,703.009460 1074.155273,702.719055 1073.918823,702.739868 
	C1073.093262,702.812439 1072.219360,702.849609 1071.466187,703.153625 
	C1063.133057,706.516479 1054.613770,706.319214 1045.960205,704.740723 
	C1035.016113,702.744568 1025.806763,704.629089 1019.065552,714.875244 
	C1014.587280,721.682068 1010.061462,720.775208 1006.937805,713.095764 
	C1004.664978,707.507874 1001.440674,703.447388 995.289307,701.903076 
	C991.336426,700.910706 989.506348,697.751160 988.982422,693.774780 
	C988.636841,691.152344 988.113953,688.553284 987.670410,685.943726 
	C986.796143,687.967041 986.992798,689.845215 986.761108,691.669006 
	C985.877258,698.625488 988.890503,702.866821 995.160828,705.819824 
	C998.076050,707.192871 1000.352295,710.146179 1002.572327,712.685486 
	C1003.840881,714.136536 1004.356262,716.226929 1005.310364,717.975159 
	C1009.561829,725.765015 1015.487549,726.501770 1021.646973,719.957642 
	C1023.236938,718.268311 1024.590088,716.356140 1026.507324,713.995056 
M1030.887939,657.483582 
	C1018.439148,650.564209 1014.240967,640.592834 1020.886902,625.819336 
	C1013.630920,633.099426 1012.228516,641.188843 1015.941772,648.395630 
	C1019.576050,655.449097 1027.800415,660.514587 1034.279297,659.367920 
	C1033.155151,658.758484 1032.313110,658.301941 1030.887939,657.483582 
M1105.152222,645.523804 
	C1099.079712,651.542786 1093.007324,657.561707 1086.934937,663.580627 
	C1087.274414,664.004578 1087.613892,664.428589 1087.953369,664.852539 
	C1090.173828,663.181335 1093.016113,661.935120 1094.501709,659.761719 
	C1099.546631,652.381287 1106.553345,648.443481 1114.830200,645.639771 
	C1118.454834,644.411987 1121.308105,640.907043 1124.511719,638.436157 
	C1124.287231,638.289917 1124.062744,638.143677 1123.838379,637.997437 
	C1117.835693,640.391418 1111.833008,642.785400 1105.152222,645.523804 
M1020.221130,625.534302 
	C1020.407654,625.555969 1020.594238,625.577698 1020.780762,625.599426 
	C1020.698975,625.490601 1020.617188,625.381775 1020.221130,625.534302 
z"/>
<path fill="#F49CCE" opacity="1.000000" stroke="none" 
	d="
M438.018066,755.805359 
	C434.217377,750.086426 435.901337,744.280640 436.493622,738.532288 
	C437.975006,724.155518 439.756653,709.794434 440.646545,695.379517 
	C440.987518,689.857056 439.574005,684.129333 438.357208,678.628418 
	C436.031555,668.114685 436.357330,657.843628 439.684448,647.602539 
	C441.378906,642.386902 442.834229,637.090637 444.291138,631.801514 
	C446.573730,623.514893 445.557922,615.667542 441.002106,608.307007 
	C438.725922,604.629578 436.376343,600.980042 434.376373,597.152527 
	C428.693176,586.276062 426.040009,574.938293 431.052704,563.093994 
	C436.432434,550.382507 446.310272,546.902222 458.639526,552.957642 
	C459.535248,553.397583 460.527313,553.703674 461.318329,554.284729 
	C468.040955,559.222290 474.771118,559.717712 482.188507,555.425842 
	C485.232788,553.664307 489.106018,553.136047 492.684021,552.529419 
	C512.566650,549.158508 525.984741,562.552063 522.530701,582.557861 
	C521.490967,588.579590 519.638733,594.519531 517.594727,600.297485 
	C513.182068,612.771301 513.874939,624.991760 519.655029,636.642029 
	C524.966309,647.347168 527.723999,658.318420 527.263123,670.296997 
	C526.922241,679.156555 529.634033,686.543030 537.562805,692.192078 
	C549.106628,700.416748 550.171448,711.202759 541.411255,722.299438 
	C538.593933,725.868164 538.744934,729.605591 539.119202,733.626709 
	C539.416565,736.821350 538.647339,739.193298 534.273743,738.721436 
	C534.369507,737.650391 534.707214,736.777100 534.456177,736.133423 
	C533.726685,734.263062 533.201599,731.671204 531.767029,730.894775 
	C530.275452,730.087585 527.424988,730.435059 525.858704,731.398865 
	C522.377502,733.540955 521.616089,737.182800 522.518555,741.075256 
	C523.193176,743.985046 524.446655,746.816711 524.713867,749.749573 
	C525.003418,752.927856 523.817261,755.983093 519.959900,756.055359 
	C516.385681,756.122375 515.851379,753.234497 515.859131,750.406372 
	C515.864136,748.582825 516.178467,746.761780 516.311890,744.936584 
	C516.748596,738.961731 512.906067,735.379700 506.994415,736.667847 
	C496.831421,738.882446 488.509827,744.658997 480.295868,750.724548 
	C476.902252,753.230469 473.068726,755.513977 469.079681,756.764038 
	C460.212738,759.542725 456.472229,764.213745 457.122650,773.598511 
	C457.410065,777.745178 458.419586,781.861084 458.468750,785.998413 
	C458.502899,788.870361 458.164307,792.222961 456.667755,794.484192 
	C455.499603,796.249146 451.978149,797.844360 450.085602,797.337524 
	C448.323059,796.865479 446.885376,793.661011 446.155487,791.386414 
	C445.668213,789.867981 446.391144,787.759399 447.052490,786.106995 
	C451.426483,775.179688 449.285522,765.940186 440.221741,758.345276 
	C439.465088,757.711182 438.890137,756.860352 438.018066,755.805359 
M513.224731,633.073486 
	C512.003235,629.328430 510.781738,625.583313 509.560272,621.838257 
	C509.153046,624.819763 509.165253,627.719055 510.018707,630.344971 
	C515.241821,646.415527 518.381042,662.616089 517.280212,679.755859 
	C516.674744,689.184265 523.846191,696.440613 532.824768,697.724854 
	C522.493530,691.733704 520.582947,682.708557 522.420410,672.766541 
	C524.093994,663.711304 522.943848,655.322205 519.220642,647.071777 
	C517.240173,642.683167 515.441833,638.212341 513.224731,633.073486 
M470.384979,568.915894 
	C475.868225,567.931091 481.351501,566.946350 486.834747,565.961548 
	C486.773407,565.512939 486.712067,565.064331 486.650726,564.615723 
	C483.500183,565.038086 480.265137,565.141113 477.216492,565.948364 
	C470.569885,567.708252 464.771576,567.101318 458.845520,562.945190 
	C450.244781,556.913208 439.906769,561.706482 437.969971,572.068604 
	C436.685852,578.939026 438.629822,585.034058 442.851105,590.510071 
	C442.782104,588.551819 442.421082,586.661804 441.905151,584.815125 
	C440.257446,578.917480 441.721832,573.583069 445.002350,568.702881 
	C448.576935,563.385071 453.064575,562.715515 458.797577,565.560242 
	C462.119537,567.208618 465.923767,567.885010 470.384979,568.915894 
z"/>
<path fill="#F49CCD" opacity="1.000000" stroke="none" 
	d="
M576.447632,636.767639 
	C571.408936,631.680237 566.845093,626.598877 561.711548,622.179321 
	C550.981506,612.941528 545.143860,601.495422 545.210388,587.328552 
	C545.260254,576.720520 549.765869,568.333435 559.209473,563.105286 
	C568.161316,558.149353 577.458801,558.895508 585.001709,565.093445 
	C598.175476,575.918030 612.231750,576.470459 627.699036,572.075073 
	C638.290955,569.065247 649.168823,567.370972 660.227295,569.919250 
	C675.254395,573.382080 683.113708,583.011169 684.089600,598.389221 
	C684.378296,602.938904 685.408081,607.599609 686.989258,611.880310 
	C692.148010,625.846680 688.498901,636.360596 674.957581,642.891418 
	C668.213684,646.143921 663.493958,650.325623 661.575562,657.818665 
	C661.067688,659.802429 658.093933,661.154907 656.252502,662.797302 
	C654.678345,660.734253 652.107300,658.851807 651.695496,656.578308 
	C649.424316,644.039368 646.508484,640.324707 633.656189,639.049561 
	C624.309021,638.122253 614.668884,637.930847 605.382080,639.132446 
	C591.492493,640.929504 586.175842,649.981873 589.642029,663.507996 
	C590.507690,666.886108 591.893982,670.148987 592.539673,673.559753 
	C593.084167,676.435913 593.756470,679.783997 592.773193,682.297791 
	C591.973267,684.343018 588.929199,686.318420 586.636780,686.652039 
	C585.374084,686.835815 582.664856,683.765503 582.260925,681.819214 
	C581.322449,677.297241 581.349731,672.569580 581.053833,667.920898 
	C580.641846,661.448547 580.591797,654.935425 579.803955,648.511292 
	C579.327820,644.628723 577.748291,640.881470 576.447632,636.767639 
M631.107971,579.576111 
	C631.069031,579.264832 631.030151,578.953552 630.991211,578.642334 
	C629.353943,578.927979 627.712830,579.193115 626.080078,579.502441 
	C610.622498,582.431580 595.599670,582.209167 581.667175,573.582581 
	C580.128418,572.629822 578.384888,571.936951 576.654297,571.377075 
	C568.567200,568.760620 560.122986,572.441772 555.313904,580.145691 
	C551.434570,586.360168 552.029175,598.249451 557.714722,601.966919 
	C557.203918,600.064392 556.653076,598.331909 556.277283,596.562256 
	C553.209900,582.120300 562.008911,572.964905 576.140991,576.048401 
	C579.523987,576.786621 582.851440,578.014160 586.030579,579.411926 
	C600.839844,585.923096 615.660828,586.118652 631.107971,579.576111 
M676.975342,623.247009 
	C677.003662,628.836548 673.902039,632.494629 669.511841,635.366638 
	C666.740173,637.179749 663.630005,638.656799 661.319885,640.940308 
	C659.208435,643.027405 657.968628,645.996399 656.344727,648.576782 
	C662.216064,645.350342 667.278870,641.994019 672.299988,638.576416 
	C677.817993,634.820496 682.947754,630.518860 681.903625,623.012451 
	C681.044800,616.838318 679.209656,610.800049 677.807251,604.701538 
	C677.123413,604.787598 676.439575,604.873596 675.755737,604.959656 
	C676.162659,610.766846 676.569519,616.574097 676.975342,623.247009 
z"/>
<path fill="#F49CCD" opacity="1.000000" stroke="none" 
	d="
M440.411560,498.313354 
	C441.105011,493.851227 441.629669,489.773102 442.169739,485.697083 
	C442.777222,481.112213 442.721863,476.304321 444.154785,471.992157 
	C447.132019,463.032776 455.142822,459.372314 464.113342,462.237488 
	C466.149353,462.887787 468.322418,463.681458 469.925568,465.017426 
	C477.744385,471.533173 486.195618,470.887024 494.802185,467.357452 
	C506.757904,462.454346 515.830811,464.690216 524.249268,479.630341 
	C527.531189,485.454742 527.083801,491.323364 522.696716,496.330200 
	C517.298584,502.490906 515.566956,509.456085 515.739136,517.495483 
	C516.011230,530.196411 511.710266,537.317871 501.929291,539.332458 
	C497.160950,540.314514 491.812347,539.276306 486.861603,538.393799 
	C478.877258,536.970642 471.070984,533.842651 463.071716,533.351257 
	C444.540955,532.212891 432.904999,516.323425 440.411560,498.313354 
M517.007385,491.343628 
	C517.615417,489.805725 518.392212,488.311310 518.801697,486.722229 
	C520.380249,480.596252 518.302429,475.994812 512.742371,472.988831 
	C506.371826,469.544617 500.819153,470.126404 496.166809,474.963135 
	C497.071747,474.870880 497.745819,474.934967 498.318512,474.723969 
	C508.343048,471.029999 515.881775,476.222778 514.975647,486.657104 
	C514.673462,490.137115 512.788086,493.497986 511.505920,496.867432 
	C510.789398,498.750366 509.825500,500.539185 508.973083,502.370422 
	C509.405304,502.563385 509.837524,502.756348 510.269714,502.949310 
	C511.288422,501.149994 512.283508,499.336761 513.332397,497.555237 
	C514.423401,495.702118 515.566406,493.879639 517.007385,491.343628 
z"/>
<path fill="#0B7A41" opacity="1.000000" stroke="none" 
	d="
M358.622162,763.665344 
	C362.554382,759.739258 367.300262,757.421387 372.839508,757.296265 
	C378.547302,757.167236 382.746460,754.183655 387.216217,751.159729 
	C391.813995,748.049377 396.774292,745.258484 401.934753,743.249329 
	C408.836182,740.562378 412.464508,737.035339 411.789520,729.627258 
	C411.258148,723.795227 409.300140,718.023132 407.446045,712.399109 
	C405.085083,705.237671 402.189972,698.252258 400.618500,690.810730 
	C405.707672,699.273499 411.120422,707.564514 415.744720,716.274109 
	C417.942352,720.413208 419.422424,725.278992 419.845703,729.941101 
	C420.678253,739.110840 416.547760,745.450989 407.789307,748.313843 
	C398.855194,751.234131 390.419006,754.609558 383.181915,760.899902 
	C381.241791,762.586304 377.413635,763.334717 374.821960,762.781616 
	C369.350708,761.613831 364.319794,762.173523 358.903809,763.837158 
	C358.561188,763.626526 358.622162,763.665344 358.622162,763.665344 
z"/>
<path fill="#0E7B43" opacity="1.000000" stroke="none" 
	d="
M184.797821,463.826599 
	C186.647217,464.315857 188.094376,464.803589 189.541550,465.291321 
	C189.636398,465.728882 189.731247,466.166443 189.826096,466.604034 
	C179.217056,465.368256 174.634003,471.964630 170.940170,479.877991 
	C166.969040,488.385376 159.349030,491.849487 150.836517,493.892242 
	C147.931641,494.589325 144.950073,494.959930 142.024490,495.578735 
	C129.811279,498.161926 125.725792,502.774170 124.750992,514.994751 
	C119.197281,502.215118 125.366295,490.903992 139.076767,488.798676 
	C142.525696,488.269073 146.034485,488.081238 149.454086,487.418213 
	C158.217773,485.719055 164.861786,480.750214 170.184158,473.726135 
	C173.824387,468.922058 177.606888,464.176056 184.797821,463.826599 
z"/>
<path fill="#147C46" opacity="1.000000" stroke="none" 
	d="
M379.543213,568.457886 
	C380.756531,561.099121 380.575287,553.435425 383.617310,547.394897 
	C391.125031,532.486816 398.802368,517.929260 397.185638,500.367096 
	C400.647919,504.615631 400.570984,509.539703 399.513245,514.027039 
	C397.237335,523.682556 394.563995,533.282471 391.385040,542.678955 
	C385.224457,560.888855 383.686615,569.939209 385.593903,583.644714 
	C381.294006,579.250854 380.348175,574.115540 379.543213,568.457886 
z"/>
<path fill="#137B46" opacity="1.000000" stroke="none" 
	d="
M269.459656,682.375366 
	C269.710571,680.980957 269.857513,679.558044 270.229584,678.196777 
	C272.403564,670.241882 274.449677,662.244873 276.914490,654.379700 
	C278.170685,650.371216 280.004883,646.501587 281.945526,642.759888 
	C284.813019,637.231018 288.108917,631.925476 291.028290,626.421875 
	C292.961029,622.778320 294.039948,618.587402 296.400085,615.283691 
	C302.257050,607.085327 308.133484,607.010803 315.173828,614.487122 
	C314.900818,614.583618 314.596954,614.813904 314.376801,614.751099 
	C302.144257,611.259216 299.047821,613.103088 297.222626,625.463196 
	C296.128601,632.871826 293.055267,639.203003 287.234131,643.817505 
	C281.769867,648.149170 279.022491,653.643860 278.248688,660.373047 
	C277.335571,668.313843 274.334076,675.413025 269.471008,682.087280 
	C269.389923,682.388855 269.459656,682.375366 269.459656,682.375366 
z"/>
<path fill="#0E7B43" opacity="1.000000" stroke="none" 
	d="
M310.744781,483.134003 
	C321.445740,484.161713 330.819489,481.510010 339.616333,476.309235 
	C340.696442,475.670624 342.038971,475.475861 343.259888,475.075409 
	C343.471466,475.519196 343.683075,475.962952 343.894653,476.406708 
	C337.483307,479.615784 331.389374,484.260895 324.600403,485.761353 
	C305.187042,490.051819 293.326233,500.907440 289.935516,520.671143 
	C289.744904,521.782043 289.239197,522.838989 288.815399,524.116150 
	C284.625397,509.428467 295.328888,489.265411 310.744781,483.134003 
z"/>
<path fill="#137B46" opacity="1.000000" stroke="none" 
	d="
M123.825920,744.034546 
	C125.113998,748.554138 128.363708,749.484863 131.888535,747.343140 
	C138.106873,743.565002 143.311829,744.485596 148.663742,748.991394 
	C152.741013,752.424133 157.025650,751.241943 160.958344,748.271912 
	C162.989166,746.738220 164.974197,745.143860 166.979889,743.576904 
	C167.267761,743.922424 167.555634,744.267883 167.843491,744.613403 
	C165.001785,747.408447 162.371231,750.469177 159.268326,752.935486 
	C154.747040,756.529114 151.044327,756.572327 146.705460,752.713806 
	C142.556473,749.024109 138.709869,748.381653 133.618423,750.781555 
	C127.779633,753.533691 124.642822,751.585815 122.447281,744.386475 
	C123.085815,744.027649 123.455864,744.031128 123.825920,744.034546 
z"/>
<path fill="#36815A" opacity="1.000000" stroke="none" 
	d="
M123.884491,743.617981 
	C123.455864,744.031128 123.085815,744.027649 122.438232,744.027832 
	C123.257530,739.189819 124.354355,734.348206 125.451187,729.506592 
	C125.857719,729.602295 126.264259,729.697937 126.670799,729.793579 
	C125.761551,734.262878 124.852303,738.732117 123.884491,743.617981 
z"/>
<path fill="#137B46" opacity="1.000000" stroke="none" 
	d="
M269.389709,682.424377 
	C269.389526,682.459900 269.222015,682.228088 269.222015,682.228088 
	C269.222015,682.228088 269.328979,682.489502 269.394318,682.432434 
	C269.459656,682.375366 269.389923,682.388855 269.389709,682.424377 
z"/>
<path fill="#0B7A41" opacity="1.000000" stroke="none" 
	d="
M358.531616,763.605774 
	C358.638611,763.855225 358.775208,764.125427 358.911804,764.395691 
	C358.772430,764.299072 358.633057,764.202393 358.557922,763.885559 
	C358.622162,763.665344 358.561188,763.626526 358.531616,763.605774 
z"/>
<path fill="#0C7A42" opacity="1.000000" stroke="none" 
	d="
M716.964844,576.138672 
	C714.860718,585.845703 712.844360,595.163025 710.588074,605.588806 
	C708.274536,597.904053 708.619934,590.876343 709.366394,583.970642 
	C711.045288,568.437805 717.598389,554.794189 727.847046,543.285645 
	C732.111267,538.497314 737.956787,534.486633 743.866821,531.942566 
	C752.706421,528.137390 758.094788,522.344788 760.981018,513.267883 
	C766.791260,494.995331 786.249451,480.179016 805.312195,478.946472 
	C806.210083,478.888397 807.125427,479.099182 807.070679,479.094025 
	C799.574341,482.340851 791.294922,485.637817 783.279480,489.485107 
	C776.201111,492.882629 771.642212,498.676331 769.422974,506.298737 
	C767.891113,511.560059 766.094971,516.743835 764.503052,521.988403 
	C762.073120,529.993774 757.132629,536.312439 749.283508,538.687561 
	C731.812988,543.974060 723.790222,557.270935 718.040649,572.927063 
	C717.697083,573.862549 717.381287,574.808167 716.964844,576.138672 
z"/>
<path fill="#117B44" opacity="1.000000" stroke="none" 
	d="
M773.249512,745.833679 
	C767.802246,747.066467 762.831909,748.430847 757.787781,749.417725 
	C748.000183,751.332581 740.767761,745.782227 742.358398,736.123230 
	C745.208130,718.818604 737.433411,704.826050 730.328064,690.203186 
	C730.795593,690.203186 731.527649,690.038269 731.634216,690.226868 
	C736.431030,698.713196 741.754211,706.975403 745.654541,715.861328 
	C747.376892,719.785339 746.575134,725.007935 746.258179,729.595337 
	C745.658020,738.280823 750.137390,743.435791 758.851318,742.879272 
	C762.622803,742.638367 766.411255,741.708679 770.056213,740.632141 
	C778.290527,738.200256 785.123413,740.293213 790.870117,746.443481 
	C793.255249,748.996094 795.540344,751.641968 797.887329,754.230530 
	C803.367371,760.274780 809.856384,763.054199 818.022278,760.462585 
	C818.805969,760.213928 819.655151,760.155334 820.479858,760.060303 
	C820.798523,760.023621 821.133728,760.131470 821.461060,760.176025 
	C814.908264,765.913391 803.020752,765.001038 795.262329,758.068604 
	C792.410583,755.520508 789.794128,752.710510 786.973328,750.125916 
	C783.224976,746.691711 778.814941,745.106506 773.249512,745.833679 
z"/>
<path fill="#107B44" opacity="1.000000" stroke="none" 
	d="
M819.803650,717.526611 
	C811.199463,715.773376 806.281738,710.682190 804.044128,702.800659 
	C802.235779,696.431274 800.468750,690.050171 799.364075,683.247681 
	C800.803833,685.683716 802.407959,688.039795 803.642395,690.575745 
	C805.239746,693.856873 806.455078,697.321777 807.987366,700.637085 
	C812.981567,711.443237 820.687439,715.237427 831.910767,711.277100 
	C838.884094,708.816284 845.512756,705.173035 851.956299,701.469360 
	C859.773987,696.975830 867.727051,693.796875 878.330017,695.259399 
	C875.933716,696.045105 874.793091,696.539856 873.601257,696.790466 
	C865.105774,698.577026 857.749146,702.494995 851.174744,708.150391 
	C842.284119,715.798462 831.985168,719.209656 819.803650,717.526611 
z"/>
<path fill="#137B46" opacity="1.000000" stroke="none" 
	d="
M935.319336,686.655029 
	C939.328796,697.311157 942.943665,707.647888 941.323364,718.959351 
	C939.707031,730.244019 934.261597,735.727417 922.840881,736.959229 
	C916.904236,737.599487 910.875488,737.424316 904.953430,738.149170 
	C900.417175,738.704285 895.982849,740.092896 890.237244,741.398438 
	C898.100342,735.261902 906.417114,734.627197 914.430176,733.093445 
	C914.755737,733.031189 915.091248,733.022156 915.421021,732.980286 
	C932.920593,730.756165 936.500916,727.271118 935.738464,709.679199 
	C935.328064,700.210999 932.722473,690.838928 931.147034,681.416870 
	C931.082275,681.029663 931.422546,680.574707 932.035034,678.864319 
	C933.351440,681.981873 934.262512,684.139404 935.319336,686.655029 
z"/>
<path fill="#1D7D4C" opacity="1.000000" stroke="none" 
	d="
M943.068359,606.700317 
	C943.256897,598.991638 940.915283,593.681763 935.614136,592.710632 
	C930.404724,591.756287 924.883728,592.502563 919.292725,591.663025 
	C923.963318,590.967773 928.680298,589.475342 933.294678,589.744202 
	C942.716064,590.293335 948.943054,598.487854 946.271729,607.546570 
	C943.929199,615.490356 939.787781,622.903564 936.440918,630.551086 
	C935.955505,630.361877 935.470093,630.172668 934.984741,629.983459 
	C936.331848,626.084167 937.660828,622.178528 939.031494,618.287537 
	C940.344116,614.561340 941.700195,610.850464 943.068359,606.700317 
z"/>
<path fill="#177C48" opacity="1.000000" stroke="none" 
	d="
M945.825195,491.961823 
	C946.181946,480.337372 942.779602,475.363861 932.837219,472.537567 
	C938.075989,471.288757 943.802246,473.759216 946.843567,478.580322 
	C950.202026,483.904297 949.762085,490.133759 945.256470,495.444550 
	C945.493469,494.034271 945.636414,493.183929 945.825195,491.961823 
z"/>
<path fill="#03793C" opacity="1.000000" stroke="none" 
	d="
M1112.047119,633.059937 
	C1103.447388,635.696777 1096.594482,640.314026 1091.862183,647.503540 
	C1082.536621,661.671326 1068.763062,664.064453 1054.088135,660.306580 
	C1045.165039,658.021667 1036.742432,652.931274 1028.785645,647.989197 
	C1022.196106,643.896301 1020.977783,637.945862 1024.426880,630.950500 
	C1028.325806,623.043152 1029.335083,614.925354 1028.968994,606.278625 
	C1028.768311,601.536865 1029.166016,596.561218 1030.442993,592.013733 
	C1032.406616,585.021179 1039.985596,580.208191 1046.886841,580.543640 
	C1053.288452,580.854797 1059.119507,585.264160 1060.362305,591.876953 
	C1060.959839,595.055725 1059.837036,598.620483 1059.189697,601.951477 
	C1058.627808,604.841797 1057.065674,607.643555 1057.038696,610.494690 
	C1057.020874,612.390869 1058.537354,615.382690 1060.069824,615.935608 
	C1061.938965,616.609802 1065.818604,615.957397 1066.575073,614.611694 
	C1068.313965,611.518799 1069.267700,607.688049 1069.451782,604.100891 
	C1069.634888,600.532959 1068.166626,596.911743 1067.998169,593.287170 
	C1067.733398,587.589966 1070.308350,583.876648 1075.978638,582.965088 
	C1082.167480,581.970154 1088.544067,581.583191 1094.809692,581.794922 
	C1100.263794,581.979126 1102.113037,584.719299 1102.161499,590.350098 
	C1102.171509,591.515259 1102.059082,592.694214 1102.197632,593.843323 
	C1102.719971,598.175110 1105.080811,599.131348 1108.618164,596.501892 
	C1109.518311,595.832642 1110.428711,595.177002 1111.788940,594.182922 
	C1114.885742,604.035095 1118.281006,613.366821 1120.663086,622.950439 
	C1122.165161,628.994141 1117.166992,631.239868 1112.047119,633.059937 
z"/>
<path fill="#117B44" opacity="1.000000" stroke="none" 
	d="
M1026.279663,714.270691 
	C1024.590088,716.356140 1023.236938,718.268311 1021.646973,719.957642 
	C1015.487549,726.501770 1009.561829,725.765015 1005.310364,717.975159 
	C1004.356262,716.226929 1003.840881,714.136536 1002.572327,712.685486 
	C1000.352295,710.146179 998.076050,707.192871 995.160828,705.819824 
	C988.890503,702.866821 985.877258,698.625488 986.761108,691.669006 
	C986.992798,689.845215 986.796143,687.967041 987.670410,685.943726 
	C988.113953,688.553284 988.636841,691.152344 988.982422,693.774780 
	C989.506348,697.751160 991.336426,700.910706 995.289307,701.903076 
	C1001.440674,703.447388 1004.664978,707.507874 1006.937805,713.095764 
	C1010.061462,720.775208 1014.587280,721.682068 1019.065552,714.875244 
	C1025.806763,704.629089 1035.016113,702.744568 1045.960205,704.740723 
	C1054.613770,706.319214 1063.133057,706.516479 1071.466187,703.153625 
	C1072.219360,702.849609 1073.093262,702.812439 1073.918823,702.739868 
	C1074.155273,702.719055 1074.419067,703.009460 1075.080688,703.398254 
	C1067.815674,707.107971 1060.514893,709.074524 1052.563599,708.506287 
	C1048.587402,708.222107 1044.593628,708.186157 1040.608276,708.026245 
	C1034.967529,707.799988 1030.113403,709.420410 1026.279663,714.270691 
z"/>
<path fill="#1A7C4A" opacity="1.000000" stroke="none" 
	d="
M990.892395,559.814270 
	C993.396667,554.142517 998.050354,551.282166 1003.862976,550.035828 
	C1007.271362,549.304993 1010.710693,548.709839 1014.148743,548.127686 
	C1021.034790,546.961609 1027.080322,544.191345 1032.215820,539.344971 
	C1043.023315,529.145691 1056.303101,529.125671 1069.843994,530.311890 
	C1064.334839,531.226257 1058.656494,531.588013 1053.364258,533.210144 
	C1048.050903,534.838684 1042.167725,536.673828 1038.218018,540.268555 
	C1029.106934,548.560852 1018.563965,551.488159 1006.798950,552.091553 
	C1000.679260,552.405457 995.553955,554.883179 991.897400,560.510010 
	C991.297974,560.350891 991.095215,560.082581 990.892395,559.814270 
z"/>
<path fill="#177C48" opacity="1.000000" stroke="none" 
	d="
M1031.179443,657.664429 
	C1032.313110,658.301941 1033.155151,658.758484 1034.279297,659.367920 
	C1027.800415,660.514587 1019.576050,655.449097 1015.941772,648.395630 
	C1012.228516,641.188843 1013.630920,633.099426 1020.886902,625.819336 
	C1014.240967,640.592834 1018.439148,650.564209 1031.179443,657.664429 
z"/>
<path fill="#177C48" opacity="1.000000" stroke="none" 
	d="
M1105.491211,645.351562 
	C1111.833008,642.785400 1117.835693,640.391418 1123.838379,637.997437 
	C1124.062744,638.143677 1124.287231,638.289917 1124.511719,638.436157 
	C1121.308105,640.907043 1118.454834,644.411987 1114.830200,645.639771 
	C1106.553345,648.443481 1099.546631,652.381287 1094.501709,659.761719 
	C1093.016113,661.935120 1090.173828,663.181335 1087.953369,664.852539 
	C1087.613892,664.428589 1087.274414,664.004578 1086.934937,663.580627 
	C1093.007324,657.561707 1099.079712,651.542786 1105.491211,645.351562 
z"/>
<path fill="#36815A" opacity="1.000000" stroke="none" 
	d="
M990.628418,560.055054 
	C991.095215,560.082581 991.297974,560.350891 991.694336,560.781006 
	C989.575317,569.920959 987.262756,578.899048 984.950256,587.877197 
	C985.307068,578.406799 985.619629,568.921936 990.628418,560.055054 
z"/>
<path fill="#177C48" opacity="1.000000" stroke="none" 
	d="
M1020.378235,625.403625 
	C1020.617188,625.381775 1020.698975,625.490601 1020.780762,625.599426 
	C1020.594238,625.577698 1020.407654,625.555969 1020.378235,625.403625 
z"/>
<path fill="#147C46" opacity="1.000000" stroke="none" 
	d="
M513.393005,633.426025 
	C515.441833,638.212341 517.240173,642.683167 519.220642,647.071777 
	C522.943848,655.322205 524.093994,663.711304 522.420410,672.766541 
	C520.582947,682.708557 522.493530,691.733704 532.824768,697.724854 
	C523.846191,696.440613 516.674744,689.184265 517.280212,679.755859 
	C518.381042,662.616089 515.241821,646.415527 510.018707,630.344971 
	C509.165253,627.719055 509.153046,624.819763 509.560272,621.838257 
	C510.781738,625.583313 512.003235,629.328430 513.393005,633.426025 
z"/>
<path fill="#177C48" opacity="1.000000" stroke="none" 
	d="
M469.947968,568.957397 
	C465.923767,567.885010 462.119537,567.208618 458.797577,565.560242 
	C453.064575,562.715515 448.576935,563.385071 445.002350,568.702881 
	C441.721832,573.583069 440.257446,578.917480 441.905151,584.815125 
	C442.421082,586.661804 442.782104,588.551819 442.851105,590.510071 
	C438.629822,585.034058 436.685852,578.939026 437.969971,572.068604 
	C439.906769,561.706482 450.244781,556.913208 458.845520,562.945190 
	C464.771576,567.101318 470.569885,567.708252 477.216492,565.948364 
	C480.265137,565.141113 483.500183,565.038086 486.650726,564.615723 
	C486.712067,565.064331 486.773407,565.512939 486.834747,565.961548 
	C481.351501,566.946350 475.868225,567.931091 469.947968,568.957397 
z"/>
<path fill="#177C48" opacity="1.000000" stroke="none" 
	d="
M630.841797,579.724854 
	C615.660828,586.118652 600.839844,585.923096 586.030579,579.411926 
	C582.851440,578.014160 579.523987,576.786621 576.140991,576.048401 
	C562.008911,572.964905 553.209900,582.120300 556.277283,596.562256 
	C556.653076,598.331909 557.203918,600.064392 557.714722,601.966919 
	C552.029175,598.249451 551.434570,586.360168 555.313904,580.145691 
	C560.122986,572.441772 568.567200,568.760620 576.654297,571.377075 
	C578.384888,571.936951 580.128418,572.629822 581.667175,573.582581 
	C595.599670,582.209167 610.622498,582.431580 626.080078,579.502441 
	C627.712830,579.193115 629.353943,578.927979 630.991211,578.642334 
	C631.030151,578.953552 631.069031,579.264832 630.841797,579.724854 
z"/>
<path fill="#0E7B43" opacity="1.000000" stroke="none" 
	d="
M676.975830,622.814148 
	C676.569519,616.574097 676.162659,610.766846 675.755737,604.959656 
	C676.439575,604.873596 677.123413,604.787598 677.807251,604.701538 
	C679.209656,610.800049 681.044800,616.838318 681.903625,623.012451 
	C682.947754,630.518860 677.817993,634.820496 672.299988,638.576416 
	C667.278870,641.994019 662.216064,645.350342 656.344727,648.576782 
	C657.968628,645.996399 659.208435,643.027405 661.319885,640.940308 
	C663.630005,638.656799 666.740173,637.179749 669.511841,635.366638 
	C673.902039,632.494629 677.003662,628.836548 676.975830,622.814148 
z"/>
<path fill="#137B46" opacity="1.000000" stroke="none" 
	d="
M516.847046,491.693695 
	C515.566406,493.879639 514.423401,495.702118 513.332397,497.555237 
	C512.283508,499.336761 511.288422,501.149994 510.269714,502.949310 
	C509.837524,502.756348 509.405304,502.563385 508.973083,502.370422 
	C509.825500,500.539185 510.789398,498.750366 511.505920,496.867432 
	C512.788086,493.497986 514.673462,490.137115 514.975647,486.657104 
	C515.881775,476.222778 508.343048,471.029999 498.318512,474.723969 
	C497.745819,474.934967 497.071747,474.870880 496.166809,474.963135 
	C500.819153,470.126404 506.371826,469.544617 512.742371,472.988831 
	C518.302429,475.994812 520.380249,480.596252 518.801697,486.722229 
	C518.392212,488.311310 517.615417,489.805725 516.847046,491.693695 
z"/>
</svg>